<svg aria-hidden="true" style="position: absolute; width: 0; height: 0; overflow: hidden;" version="1.1" xmlns="http://www.w3.org/2000/svg" xmlns:xlink="http://www.w3.org/1999/xlink">
<defs>
<symbol id="icon-body-font" viewBox="0 0 30 32">
<path stroke-width="2.8235" stroke-miterlimit="4" stroke-linecap="round" stroke-linejoin="round" d="M14.878 1.882c4.298 0 7.598 1.019 9.902 3.058 2.303 2.005 3.455 5.046 3.455 9.123v15.647h-7.529v-3.415c-1.513 2.548-4.332 3.822-8.458 3.822-2.132 0-3.988-0.357-5.57-1.070-1.547-0.714-2.733-1.699-3.558-2.956s-1.238-2.684-1.238-4.281c0-2.548 0.963-4.553 2.888-6.014 1.96-1.461 4.968-2.192 9.025-2.192h6.395c0-1.733-0.533-3.058-1.599-3.975-1.066-0.951-2.665-1.427-4.796-1.427-1.478 0-2.94 0.238-4.384 0.714-1.41 0.442-2.613 1.053-3.61 1.835l-2.888-5.555c1.513-1.053 3.318-1.869 5.415-2.446 2.132-0.578 4.315-0.866 6.55-0.866zM14.259 24.766c1.375 0 2.596-0.306 3.662-0.917 1.066-0.646 1.822-1.58 2.269-2.803v-2.803h-5.518c-3.301 0-4.951 1.070-4.951 3.211 0 1.019 0.395 1.835 1.186 2.447 0.825 0.578 1.942 0.866 3.352 0.866z"></path>
</symbol>
<symbol id="icon-download" viewBox="0 0 34 32">
<path d="M14.906 29.318c0.781 0.781 2.047 0.781 2.828 0l12.728-12.728c0.781-0.781 0.781-2.047 0-2.828s-2.047-0.781-2.828 0l-11.314 11.314-11.314-11.314c-0.781-0.781-2.047-0.781-2.828 0s-0.781 2.047 0 2.828l12.728 12.728zM14.32 1.708v26.196h4v-26.196h-4z"></path>
<path fill="none" stroke="#000" stroke-width="4" stroke-miterlimit="4" stroke-linecap="butt" stroke-linejoin="miter" style="stroke: var(--color1, #000)" d="mNaNclNaNNaNclNaNNaNNaNNaNclNaNNaNclNaNNaN"></path>
</symbol>
  <symbol fill="none" xmlns="http://www.w3.org/2000/svg" viewBox="0 0 17 16" id="icon-download2" >
    <path d="M7.45305 14.659C7.84357 15.0495 8.47674 15.0495 8.86726 14.659L15.2312 8.29505C15.6217 7.90453 15.6217 7.27136 15.2312 6.88084C14.8407 6.49031 14.2075 6.49031 13.817 6.88084L8.16016 12.5377L2.5033 6.88084C2.11278 6.49031 1.47961 6.49031 1.08909 6.88084C0.698564 7.27136 0.698564 7.90453 1.08909 8.29505L7.45305 14.659ZM7.16016 0.854004L7.16016 13.9519L9.16016 13.9519L9.16016 0.854004L7.16016 0.854004Z" fill="currentColor"></path>
    <line y1="14.1462" x2="16.4219" y2="14.1462" stroke="currentColor" stroke-width="2"></line>
  </symbol>
<symbol id="icon-edit" viewBox="0 0 32 32">
<path d="M19.762 5.375l-17.607 17.608c-0.089 0.089-0.153 0.201-0.183 0.322l-1.952 7.833c-0.058 0.236 0.011 0.487 0.183 0.659 0.13 0.13 0.308 0.202 0.489 0.202 0.056 0 0.112-0.007 0.168-0.021l7.833-1.952c0.122-0.030 0.233-0.094 0.322-0.183l17.608-17.607-6.861-6.862z"></path>
<path d="M30.985 2.974l-1.96-1.96c-1.31-1.31-3.593-1.309-4.901 0l-2.401 2.401 6.861 6.861 2.401-2.401c0.654-0.654 1.015-1.525 1.015-2.451s-0.36-1.796-1.015-2.451z"></path>
</symbol>
<symbol id="icon-edit2" viewBox="0 0 30 32">
<path d="M29.388 9.273l-2.721 2.721c-0.277 0.277-0.726 0.277-1.004 0l-6.552-6.552c-0.277-0.277-0.277-0.726 0-1.003l2.721-2.721c1.104-1.104 2.898-1.104 4.008 0l3.548 3.548c1.11 1.104 1.11 2.898 0 4.008zM16.774 6.776l-15.501 15.501-1.251 7.172c-0.171 0.968 0.673 1.806 1.641 1.641l7.172-1.257 15.501-15.501c0.277-0.277 0.277-0.726 0-1.004l-6.552-6.552c-0.283-0.277-0.732-0.277-1.009 0zM7.324 20.949c-0.325-0.325-0.325-0.844 0-1.169l9.090-9.090c0.325-0.325 0.844-0.325 1.169 0s0.325 0.844 0 1.169l-9.090 9.090c-0.325 0.325-0.844 0.325-1.169 0zM5.193 25.913h2.833v2.143l-3.807 0.667-1.836-1.836 0.667-3.807h2.143v2.833z"></path>
</symbol>
<symbol id="icon-generate" viewBox="0 0 30 32">
<path d="M13.222 6.556l0.944-1.889 1.889-0.944-1.889-0.944-0.944-1.889-0.944 1.889-1.889 0.944 1.889 0.944 0.944 1.889zM4.722 10.334l1.574-3.148 3.149-1.574-3.149-1.574-1.574-3.148-1.574 3.148-3.149 1.574 3.149 1.574 1.574 3.148zM25.5 17.889l-1.574 3.148-3.149 1.574 3.149 1.574 1.574 3.148 1.573-3.148 3.149-1.574-3.149-1.574-1.573-3.148zM29.669 6.451l-5.009-5.009c-0.368-0.37-0.852-0.554-1.335-0.554s-0.967 0.184-1.336 0.554l-21.435 21.436c-0.738 0.738-0.738 1.934 0 2.671l5.008 5.009c0.369 0.369 0.852 0.553 1.335 0.553s0.967-0.184 1.336-0.553l21.435-21.436c0.738-0.737 0.738-1.933 0-2.67zM21.218 12.899l-3.005-3.005 5.112-5.112 3.005 3.005-5.112 5.112z"></path>
</symbol>
<symbol id="icon-gingersauce_square" viewBox="0 0 32 32">
<path d="M0 0.061v29.123h29.123v-29.123h-29.123zM16.776 24.542c-3.676 0.626-7.594-0.299-10.668-2.879l2.6-3.099c2.32 1.947 5.333 2.526 8.068 1.842l0 4.135zM16.776 9.529c-0.554-0.595-1.342-0.97-2.218-0.97-1.673 0-3.034 1.361-3.034 3.033s1.361 3.034 3.034 3.034c0.876 0 1.663-0.375 2.218-0.97v4.654c-0.698 0.232-1.443 0.361-2.218 0.361-3.903 0-7.079-3.175-7.079-7.079s3.176-7.078 7.079-7.078c0.775 0 1.519 0.129 2.218 0.361v4.654z"></path>
</symbol>
<symbol id="icon-hamburger" viewBox="0 0 48 32">
<path d="M1.6 0h44.8c0.884 0 1.6 0.716 1.6 1.6s-0.716 1.6-1.6 1.6h-44.8c-0.884 0-1.6-0.716-1.6-1.6s0.716-1.6 1.6-1.6z"></path>
<path d="M1.6 14.4h44.8c0.884 0 1.6 0.716 1.6 1.6s-0.716 1.6-1.6 1.6h-44.8c-0.884 0-1.6-0.716-1.6-1.6s0.716-1.6 1.6-1.6z"></path>
<path d="M1.6 28.8h44.8c0.884 0 1.6 0.716 1.6 1.6s-0.716 1.6-1.6 1.6h-44.8c-0.884 0-1.6-0.716-1.6-1.6s0.716-1.6 1.6-1.6z"></path>
</symbol>
<symbol id="icon-menu-archetype" viewBox="0 0 33 32">
<path d="M9.945 10.556c0-3.697 2.997-6.695 6.694-6.695s6.695 2.997 6.695 6.695c0 2.438-1.279 5.322-3.006 7.044 4.042 1.346 6.546 4.89 7.827 8.374 0.158 0.431-0.169 0.884-0.617 0.884v0.001h-21.798c-0.449 0-0.795-0.449-0.603-0.922 1.38-3.714 3.951-7.050 7.813-8.336-1.766-1.761-3.006-4.658-3.006-7.044zM21.833 12.109c-1.359 0.092-4.065 0.060-6.866-1.198l-3.333 1.902c0.535 1.733 1.643 3.579 3.076 4.547l-0.001 0.001c0.478 0.322 0.336 1.070-0.236 1.187-0.555 0.114-1.076 0.271-1.565 0.463 1.978 1.588 5.484 1.588 7.463 0-0.478-0.188-0.986-0.341-1.526-0.455-0.633-0.111-0.747-0.878-0.276-1.196 1.613-1.089 2.826-3.302 3.264-5.252zM16.64 5.178c-2.97 0-5.378 2.408-5.378 5.378 0 0.295 0.023 0.603 0.068 0.919l3.261-1.862c0.185-0.114 0.421-0.134 0.631-0.033 2.877 1.386 5.68 1.302 6.792 1.196 0.115-3.074-2.324-5.599-5.374-5.599zM21.647 19.628c-2.503 2.517-7.512 2.517-10.015 0-2.396 1.392-3.963 3.715-4.919 5.914h19.853c-0.956-2.199-2.522-4.521-4.919-5.914z"></path>
</symbol>
<symbol id="icon-menu-designer" viewBox="0 0 33 32">
<path d="M26.15 10.060l-1.525-0v-1.579c0-0.361-0.264-0.669-0.622-0.722-0.062-0.009-1.548-0.225-3.338 0.1-1.995 0.363-3.586 1.258-4.665 2.611-1.079-1.353-2.67-2.248-4.665-2.611-1.789-0.326-3.275-0.11-3.338-0.1-0.358 0.054-0.622 0.361-0.622 0.722v1.579h-1.525c-0.403 0-0.73 0.327-0.73 0.73v13.76c0 0.236 0.114 0.458 0.307 0.595s0.44 0.172 0.663 0.094c0.055-0.019 5.527-1.886 9.607-0.025 0.193 0.088 0.414 0.088 0.606 0 4.069-1.856 9.552 0.006 9.607 0.025 0.078 0.027 0.159 0.041 0.24 0.041 0.15 0 0.298-0.046 0.423-0.135 0.193-0.137 0.307-0.359 0.307-0.595v-13.76c-0-0.403-0.327-0.73-0.73-0.73zM6.58 23.573v-12.053h0.795v9.724c0 0.212 0.093 0.414 0.253 0.552s0.374 0.201 0.584 0.17c0.040-0.006 3.212-0.441 5.53 1.149-2.855-0.488-5.712 0.076-7.162 0.457zM15.27 22.457c-1.021-0.922-2.35-1.546-3.934-1.834-0.762-0.139-1.47-0.179-2.035-0.179-0.168 0-0.323 0.004-0.464 0.009v-11.301h-0c1.403-0.063 4.817 0.087 6.434 2.827v10.478zM16.73 11.979c1.611-2.729 5.030-2.886 6.434-2.825v11.3c-0.614-0.025-1.511-0.010-2.499 0.17-1.584 0.288-2.914 0.912-3.935 1.834v-10.478zM18.255 23.116c2.318-1.591 5.492-1.155 5.531-1.149 0.21 0.032 0.424-0.030 0.585-0.169s0.254-0.341 0.254-0.553v-9.724h0.795v12.052c-1.451-0.381-4.309-0.946-7.165-0.457z"></path>
</symbol>
<symbol id="icon-menu-feature" viewBox="0 0 33 32">
<path stroke-width="1.92" stroke-miterlimit="4" stroke-linecap="butt" stroke-linejoin="miter" d="M24.43 14.1l-3.488 3.4 0.824 4.803c0.036 0.21-0.050 0.422-0.223 0.548-0.097 0.071-0.213 0.107-0.329 0.107-0.089 0-0.179-0.021-0.26-0.064l-4.313-2.267-4.313 2.267c-0.188 0.1-0.417 0.083-0.59-0.043s-0.259-0.338-0.223-0.548l0.824-4.803-3.489-3.4c-0.152-0.149-0.208-0.372-0.142-0.574s0.241-0.35 0.452-0.381l4.821-0.7 2.156-4.369c0.189-0.382 0.816-0.382 1.005 0l2.156 4.369 4.821 0.7c0.211 0.031 0.386 0.179 0.452 0.381s0.011 0.425-0.142 0.574z"></path>
</symbol>
<symbol id="icon-menu-fonts" viewBox="0 0 33 32">
<path d="M14.080 8.96h2.56v1.28h2.56v-3.84h-12.8v3.84h2.56v-1.28h2.56v12.8h-2.56v2.56h7.679v-2.56h-2.559v-12.8z"></path>
<path d="M16.64 12.8v3.84h2.56v-1.28h1.28v6.4h-1.28v2.56h5.12v-2.56h-1.28v-6.4h1.28v1.28h2.56v-3.84h-10.24z"></path>
</symbol>
<symbol id="icon-menu-help" viewBox="0 0 33 32">
<path d="M16.64 21.26c0.552 0 1-0.448 1-1s-0.448-1-1-1-1 0.448-1 1c0 0.552 0.448 1 1 1z"></path>
<path d="M16.64 5.12c-5.659 0-10.24 4.58-10.24 10.24s4.58 10.24 10.24 10.24c5.659 0 10.24-4.58 10.24-10.24s-4.58-10.24-10.24-10.24zM16.64 24c-4.775 0-8.64-3.864-8.64-8.64s3.864-8.64 8.64-8.64c4.775 0 8.64 3.864 8.64 8.64s-3.864 8.64-8.64 8.64z"></path>
<path d="M16.64 10.26c-1.764 0-3.2 1.436-3.2 3.2 0 0.442 0.358 0.8 0.8 0.8s0.8-0.358 0.8-0.8c0-0.882 0.718-1.6 1.6-1.6s1.6 0.718 1.6 1.6c0 0.882-0.718 1.6-1.6 1.6-0.442 0-0.8 0.358-0.8 0.8v2c0 0.442 0.358 0.8 0.8 0.8s0.8-0.358 0.8-0.8v-1.301c1.379-0.356 2.4-1.61 2.4-3.099 0-1.764-1.436-3.2-3.2-3.2z"></path>
</symbol>
<symbol id="icon-menu-introduction" viewBox="0 0 33 32">
<path d="M26.294 3.84h-7.362c-1.029 0-1.866 0.837-1.866 1.866v3.998c0 1.028 0.836 1.864 1.864 1.864h0.836v2.663c0 0.604 0.731 0.9 1.154 0.48l3.165-3.143h2.211c1.028 0 1.864-0.836 1.864-1.864v-3.998c0-1.029-0.837-1.866-1.866-1.866zM26.81 9.704c0 0.284-0.231 0.514-0.514 0.514h-2.489c-0.178 0-0.351 0.071-0.477 0.197l-2.215 2.2v-1.719c0-0.373-0.304-0.677-0.677-0.677h-1.509c-0.284 0-0.514-0.231-0.514-0.514v-3.998c0-0.285 0.232-0.516 0.516-0.516h7.362c0.285 0 0.516 0.232 0.516 0.516v3.998z"></path>
<path d="M25.235 7.029h-1.498c-0.373 0-0.675 0.302-0.675 0.675s0.302 0.675 0.675 0.675h1.498c0.373 0 0.675-0.302 0.675-0.675s-0.302-0.675-0.675-0.675z"></path>
<path d="M21.487 7.029h-1.498c-0.373 0-0.675 0.302-0.675 0.675s0.302 0.675 0.675 0.675h1.498c0.373 0 0.675-0.302 0.675-0.675s-0.302-0.675-0.675-0.675z"></path>
<path d="M17.892 17.901c0.487-0.568 0.783-1.304 0.783-2.108v-0.862c0-1.792-1.45-3.243-3.243-3.243-0.003 0-0.006 0-0.009 0-1.783 0.005-3.234 1.477-3.234 3.283v0.82c0 0.891 0.361 1.699 0.944 2.286-0.002 0.001-0.005 0.002-0.007 0.002l-3.957 1.416c0-0.71 0-4.953 0-5.611 0-1.129-0.926-2.050-2.070-2.024-1.092 0.024-1.98 0.945-1.98 2.054v7.262c0 1.005 0.471 1.913 1.291 2.493 0.817 0.578 1.826 0.719 2.77 0.388l0.945-0.3-0.034 2.435c-0.005 0.371 0.296 0.687 0.677 0.687h10.285c0.373 0 0.677-0.305 0.677-0.677v-3.176c0-2.424-1.623-4.475-3.839-5.125zM13.54 14.971c0-1.063 0.847-1.931 1.888-1.933h0.005c1.046 0 1.893 0.846 1.893 1.893v0.862c0 1.040-0.846 1.889-1.882 1.893h-0.009c-1.045 0-1.895-0.85-1.895-1.895v-0.82zM6.47 13.914c0-0.38 0.296-0.696 0.66-0.704 0.381-0.009 0.69 0.298 0.69 0.675v0.911h-1.35v-0.882zM20.382 25.53h-1.17v-3.016c0-0.373-0.302-0.675-0.675-0.675s-0.675 0.302-0.675 0.675v3.016h-6.41l0.037-2.686c0.006-0.46-0.443-0.794-0.882-0.655l-1.845 0.585c-0.007 0.002-0.014 0.005-0.022 0.007-0.528 0.187-1.094 0.109-1.551-0.214s-0.72-0.83-0.72-1.391v-5.030h1.35v4.305c0 0.467 0.466 0.795 0.905 0.637l4.853-1.737c0.003-0.001 0.007-0.002 0.010-0.003 1.034-0.363 1.735-0.312 2.803-0.312 2.2 0 3.991 1.79 3.991 3.991v2.503z"></path>
</symbol>
<symbol id="icon-menu-logo" viewBox="0 0 33 32">
<path d="M12.382 6.076c0.251 0.011 0.497 0.069 0.746 0.092 0.42 0.038 0.836 0.103 1.254 0.155 0.058 0.007 0.104-0.014 0.15-0.044 0.526-0.335 1.053-0.667 1.576-1.007 0.097-0.063 0.166-0.071 0.269-0.004 0.509 0.333 1.026 0.655 1.537 0.985 0.086 0.055 0.171 0.071 0.27 0.063 0.34-0.028 0.674-0.102 1.013-0.127 0.301-0.023 0.598-0.082 0.898-0.108 0.053-0.004 0.082 0.011 0.109 0.055 0.34 0.556 0.684 1.11 1.024 1.666 0.035 0.057 0.084 0.092 0.145 0.112 0.31 0.106 0.621 0.212 0.931 0.318 0.294 0.1 0.585 0.205 0.881 0.299 0.107 0.034 0.157 0.093 0.16 0.203 0.008 0.271 0.038 0.54 0.074 0.808 0.044 0.33 0.068 0.662 0.089 0.995 0.007 0.116 0.065 0.199 0.144 0.276 0.442 0.431 0.882 0.864 1.326 1.292 0.060 0.057 0.068 0.105 0.041 0.178-0.227 0.616-0.451 1.233-0.677 1.849-0.011 0.029-0.017 0.054-0.006 0.085 0.205 0.558 0.408 1.116 0.611 1.673 0.022 0.059 0.043 0.117 0.068 0.175 0.038 0.084 0.019 0.148-0.049 0.213-0.418 0.4-0.828 0.808-1.251 1.203-0.14 0.131-0.219 0.274-0.221 0.464-0.005 0.489-0.11 0.969-0.139 1.456-0.006 0.101-0.005 0.202-0.025 0.302-0.012 0.059-0.041 0.094-0.099 0.113-0.325 0.107-0.65 0.217-0.976 0.322-0.061 0.020-0.078 0.039-0.056 0.107 0.194 0.589 0.384 1.18 0.575 1.771 0.135 0.415 0.27 0.83 0.404 1.246 0.14 0.435 0.278 0.871 0.418 1.307 0.144 0.447 0.289 0.892 0.433 1.339 0.022 0.068 0.040 0.137 0.060 0.205 0.013 0.044-0.003 0.059-0.049 0.055-0.792-0.075-1.587-0.092-2.38-0.136-0.253-0.014-0.507-0.034-0.76-0.054-0.059-0.005-0.102 0.011-0.146 0.046-0.796 0.634-1.592 1.267-2.388 1.9-0.116 0.092-0.117 0.092-0.162-0.047-0.314-0.975-0.629-1.95-0.942-2.926-0.208-0.647-0.416-1.295-0.622-1.943-0.017-0.055-0.040-0.066-0.089-0.033-0.086 0.059-0.176 0.111-0.263 0.171-0.032 0.023-0.054 0.022-0.086 0-0.089-0.060-0.181-0.116-0.271-0.173-0.038-0.024-0.063-0.022-0.078 0.028-0.152 0.503-0.318 1.002-0.481 1.502-0.222 0.68-0.434 1.364-0.652 2.046-0.151 0.473-0.306 0.944-0.457 1.416-0.016 0.050-0.026 0.052-0.068 0.019-0.824-0.657-1.648-1.311-2.472-1.967-0.040-0.032-0.077-0.047-0.13-0.042-0.601 0.060-1.205 0.087-1.808 0.111-0.442 0.017-0.883 0.058-1.324 0.080-0.070 0.004-0.077-0.012-0.058-0.071 0.124-0.382 0.245-0.763 0.368-1.145 0.276-0.856 0.554-1.712 0.829-2.568 0.217-0.676 0.433-1.352 0.647-2.029 0.019-0.060 0.084-0.127 0.050-0.177-0.027-0.041-0.112-0.044-0.171-0.065-0.289-0.103-0.578-0.206-0.873-0.293-0.057-0.017-0.091-0.050-0.096-0.114-0.013-0.184-0.029-0.367-0.042-0.551-0.024-0.309-0.089-0.612-0.106-0.922-0.007-0.128-0.021-0.255-0.026-0.383-0.005-0.12-0.053-0.213-0.14-0.296-0.342-0.329-0.68-0.662-1.019-0.992-0.104-0.102-0.21-0.203-0.316-0.304-0.051-0.048-0.066-0.097-0.040-0.167 0.226-0.613 0.449-1.227 0.675-1.84 0.017-0.045 0.017-0.084 0-0.129-0.181-0.493-0.36-0.988-0.54-1.482-0.046-0.125-0.092-0.251-0.139-0.376-0.021-0.057-0.011-0.097 0.035-0.142 0.452-0.438 0.901-0.879 1.353-1.317 0.081-0.078 0.123-0.165 0.128-0.274 0.027-0.591 0.138-1.176 0.163-1.767 0.005-0.119 0.042-0.19 0.169-0.231 0.541-0.175 1.079-0.363 1.619-0.546 0.012-0.004 0.022-0.008 0.035-0.010 0.169-0.039 0.281-0.135 0.371-0.289 0.279-0.474 0.577-0.938 0.867-1.406 0.030-0.048 0.058-0.097 0.083-0.147 0.021-0.042 0.048-0.069 0.099-0.054l0.002-0.001zM13.068 7.504c-0.053-0.015-0.074 0.008-0.095 0.042-0.255 0.416-0.516 0.829-0.765 1.248-0.086 0.143-0.191 0.229-0.355 0.279-0.447 0.137-0.887 0.298-1.332 0.443-0.073 0.024-0.096 0.059-0.107 0.129-0.076 0.488-0.092 0.982-0.16 1.471-0.018 0.133-0.066 0.239-0.165 0.333-0.344 0.326-0.68 0.661-1.023 0.988-0.069 0.066-0.084 0.125-0.051 0.212 0.183 0.493 0.362 0.987 0.545 1.479 0.015 0.041 0.009 0.073-0.005 0.111-0.18 0.491-0.358 0.982-0.541 1.472-0.032 0.087-0.018 0.145 0.050 0.21 0.365 0.351 0.726 0.708 1.089 1.062 0.042 0.041 0.072 0.084 0.082 0.143 0.040 0.253 0.066 0.507 0.090 0.761 0.027 0.278 0.053 0.556 0.093 0.833 0.007 0.048 0.018 0.087 0.076 0.106 0.441 0.149 0.876 0.313 1.321 0.449 0.189 0.058 0.315 0.152 0.413 0.32 0.236 0.402 0.488 0.797 0.734 1.194 0.022 0.035 0.041 0.072 0.096 0.065 0.092-0.011 0.184-0.016 0.276-0.026 0.433-0.049 0.864-0.117 1.298-0.158 0.103-0.009 0.18 0.016 0.259 0.067 0.405 0.258 0.81 0.516 1.214 0.775 0.083 0.053 0.151 0.093 0.256 0.023 0.369-0.246 0.751-0.475 1.12-0.722 0.161-0.108 0.318-0.184 0.515-0.122 0.011 0.004 0.024 0.002 0.036 0.003 0.461 0.019 0.912 0.122 1.37 0.156 0.062 0.004 0.096-0.004 0.13-0.060 0.264-0.432 0.532-0.861 0.795-1.292 0.061-0.101 0.144-0.157 0.256-0.191 0.473-0.146 0.94-0.311 1.406-0.474 0.053-0.019 0.076-0.049 0.084-0.1 0.019-0.138 0.043-0.276 0.057-0.415 0.036-0.358 0.053-0.717 0.107-1.073 0.019-0.121 0.055-0.221 0.151-0.31 0.356-0.336 0.703-0.68 1.052-1.022 0.042-0.041 0.084-0.075 0.056-0.151-0.188-0.503-0.371-1.009-0.555-1.514-0.014-0.040-0.026-0.079-0.004-0.12 0.055-0.106 0.084-0.222 0.125-0.334 0.142-0.391 0.281-0.782 0.424-1.173 0.023-0.062 0.017-0.103-0.033-0.155-0.354-0.363-0.735-0.699-1.090-1.060-0.059-0.059-0.099-0.123-0.109-0.208-0.020-0.174-0.050-0.347-0.066-0.522-0.032-0.361-0.047-0.724-0.125-1.080-0.005-0.024 0.001-0.048-0.036-0.060-0.49-0.163-0.976-0.332-1.467-0.49-0.099-0.031-0.166-0.079-0.218-0.165-0.272-0.444-0.547-0.886-0.819-1.33-0.024-0.039-0.050-0.053-0.094-0.048-0.089 0.011-0.179 0.012-0.267 0.029-0.444 0.087-0.896 0.098-1.341 0.169-0.053 0.009-0.097-0.004-0.143-0.034-0.442-0.283-0.886-0.562-1.327-0.848-0.073-0.047-0.123-0.050-0.198-0.001-0.435 0.283-0.875 0.558-1.312 0.838-0.059 0.038-0.119 0.052-0.187 0.041-0.236-0.037-0.474-0.057-0.712-0.081-0.294-0.031-0.582-0.102-0.868-0.112l-0.004 0.001zM18.093 22.026c-0.065-0.023-0.118 0.046-0.182 0.087-0.132 0.083-0.134 0.084-0.089 0.23 0.145 0.462 0.292 0.923 0.439 1.384 0.14 0.435 0.281 0.87 0.422 1.305 0.071 0.221 0.143 0.44 0.218 0.659 0.013 0.037 0.022 0.096 0.089 0.043 0.417-0.334 0.837-0.662 1.251-1.001 0.095-0.078 0.189-0.112 0.31-0.107 0.544 0.025 1.087 0.036 1.629 0.096 0.050 0.006 0.064 0.001 0.047-0.054-0.157-0.489-0.311-0.98-0.467-1.469-0.233-0.73-0.466-1.46-0.7-2.189-0.009-0.027 0.001-0.070-0.034-0.077-0.040-0.008-0.049 0.037-0.066 0.063-0.25 0.405-0.5 0.81-0.749 1.216-0.027 0.044-0.053 0.072-0.112 0.067-0.426-0.029-0.845-0.124-1.272-0.152-0.238-0.016-0.473-0.064-0.736-0.102v-0.001zM14.707 22.213c0.004-0.019-0.014-0.034-0.036-0.047-0.041-0.024-0.087-0.043-0.122-0.075-0.076-0.070-0.156-0.069-0.254-0.054-0.629 0.094-1.261 0.162-1.892 0.235-0.068 0.008-0.099-0.013-0.134-0.070-0.248-0.41-0.502-0.816-0.754-1.224-0.012-0.019-0.020-0.048-0.048-0.047-0.027 0.001-0.026 0.028-0.031 0.047-0.112 0.397-0.248 0.787-0.375 1.18-0.269 0.834-0.532 1.669-0.8 2.503-0.017 0.054-0.007 0.062 0.045 0.057 0.164-0.014 0.328-0.025 0.492-0.034 0.397-0.021 0.794-0.041 1.191-0.061 0.071-0.004 0.135 0.007 0.193 0.054 0.426 0.342 0.853 0.681 1.28 1.022 0.092 0.074 0.091 0.075 0.135-0.036 0.004-0.009 0.007-0.016 0.009-0.025 0.138-0.423 0.276-0.846 0.414-1.27 0.191-0.594 0.382-1.187 0.573-1.781 0.039-0.122 0.075-0.244 0.115-0.375l-0.001 0.001z"></path>
<path fill="none" stroke="currentColor" stroke-width="0.768" stroke-miterlimit="4" stroke-linecap="butt" stroke-linejoin="miter" d="M12.382 6.076c0.251 0.011 0.497 0.069 0.746 0.092 0.42 0.038 0.836 0.103 1.254 0.155 0.058 0.007 0.104-0.014 0.15-0.044 0.526-0.335 1.053-0.667 1.576-1.007 0.097-0.063 0.166-0.071 0.269-0.004 0.509 0.333 1.026 0.655 1.537 0.985 0.086 0.055 0.171 0.071 0.27 0.063 0.34-0.028 0.674-0.102 1.013-0.127 0.301-0.023 0.598-0.082 0.898-0.108 0.053-0.004 0.082 0.011 0.109 0.055 0.34 0.556 0.684 1.11 1.024 1.666 0.035 0.057 0.084 0.092 0.145 0.112 0.31 0.106 0.621 0.212 0.931 0.318 0.294 0.1 0.585 0.205 0.881 0.299 0.107 0.034 0.157 0.093 0.16 0.203 0.008 0.271 0.038 0.54 0.074 0.808 0.044 0.33 0.068 0.662 0.089 0.995 0.007 0.116 0.065 0.199 0.144 0.276 0.442 0.431 0.882 0.864 1.326 1.292 0.060 0.057 0.068 0.105 0.041 0.178-0.227 0.616-0.451 1.233-0.677 1.849-0.011 0.029-0.017 0.054-0.006 0.085 0.205 0.558 0.408 1.116 0.611 1.673 0.022 0.059 0.043 0.117 0.068 0.175 0.038 0.084 0.019 0.148-0.049 0.213-0.418 0.4-0.828 0.808-1.251 1.203-0.14 0.131-0.219 0.274-0.221 0.464-0.005 0.489-0.11 0.969-0.139 1.456-0.006 0.101-0.005 0.202-0.025 0.302-0.012 0.059-0.041 0.094-0.099 0.113-0.325 0.107-0.65 0.217-0.976 0.322-0.061 0.020-0.078 0.039-0.056 0.107 0.194 0.589 0.384 1.18 0.575 1.771 0.135 0.415 0.27 0.83 0.404 1.246 0.14 0.435 0.278 0.871 0.418 1.307 0.144 0.447 0.289 0.892 0.433 1.339 0.022 0.068 0.040 0.137 0.060 0.205 0.013 0.044-0.003 0.059-0.049 0.055-0.792-0.075-1.587-0.092-2.38-0.136-0.253-0.014-0.507-0.034-0.76-0.054-0.059-0.005-0.102 0.011-0.146 0.046-0.796 0.634-1.592 1.267-2.388 1.9-0.116 0.092-0.117 0.092-0.162-0.047-0.314-0.975-0.629-1.95-0.942-2.926-0.208-0.647-0.416-1.295-0.622-1.943-0.017-0.055-0.040-0.066-0.089-0.033-0.086 0.059-0.176 0.111-0.263 0.171-0.032 0.023-0.054 0.022-0.086 0-0.089-0.060-0.181-0.116-0.271-0.173-0.038-0.024-0.063-0.022-0.078 0.028-0.152 0.503-0.318 1.002-0.481 1.502-0.222 0.68-0.434 1.364-0.652 2.046-0.151 0.473-0.306 0.944-0.457 1.416-0.016 0.050-0.026 0.052-0.068 0.019-0.824-0.657-1.648-1.311-2.472-1.967-0.040-0.032-0.077-0.047-0.13-0.042-0.601 0.060-1.205 0.087-1.808 0.111-0.442 0.017-0.883 0.058-1.324 0.080-0.070 0.004-0.077-0.012-0.058-0.071 0.124-0.382 0.245-0.763 0.368-1.145 0.276-0.856 0.554-1.712 0.829-2.568 0.217-0.676 0.433-1.352 0.647-2.029 0.019-0.060 0.084-0.127 0.050-0.177-0.027-0.041-0.112-0.044-0.171-0.065-0.289-0.103-0.578-0.206-0.873-0.293-0.057-0.017-0.091-0.050-0.096-0.114-0.013-0.184-0.029-0.367-0.042-0.551-0.024-0.309-0.089-0.612-0.106-0.922-0.007-0.128-0.021-0.255-0.026-0.383-0.005-0.12-0.053-0.213-0.14-0.296-0.342-0.329-0.68-0.662-1.019-0.992-0.104-0.102-0.21-0.203-0.316-0.304-0.051-0.048-0.066-0.097-0.040-0.167 0.226-0.613 0.449-1.227 0.675-1.84 0.017-0.045 0.017-0.084 0-0.129-0.181-0.493-0.36-0.988-0.54-1.482-0.046-0.125-0.092-0.251-0.139-0.376-0.021-0.057-0.011-0.097 0.035-0.142 0.452-0.438 0.901-0.879 1.353-1.317 0.081-0.078 0.123-0.165 0.128-0.274 0.027-0.591 0.138-1.176 0.163-1.767 0.005-0.119 0.042-0.19 0.169-0.231 0.541-0.175 1.079-0.363 1.619-0.546 0.012-0.004 0.022-0.008 0.035-0.010 0.169-0.039 0.281-0.135 0.371-0.289 0.279-0.474 0.577-0.938 0.867-1.406 0.030-0.048 0.058-0.097 0.083-0.147 0.021-0.042 0.048-0.069 0.099-0.054l0.002-0.001zM13.068 7.504c-0.053-0.015-0.074 0.008-0.095 0.042-0.255 0.416-0.516 0.829-0.765 1.248-0.086 0.143-0.191 0.229-0.355 0.279-0.447 0.137-0.887 0.298-1.332 0.443-0.073 0.024-0.096 0.059-0.107 0.129-0.076 0.488-0.092 0.982-0.16 1.471-0.018 0.133-0.066 0.239-0.165 0.333-0.344 0.326-0.68 0.661-1.023 0.988-0.069 0.066-0.084 0.125-0.051 0.212 0.183 0.493 0.362 0.987 0.545 1.479 0.015 0.041 0.009 0.073-0.005 0.111-0.18 0.491-0.358 0.982-0.541 1.472-0.032 0.087-0.018 0.145 0.050 0.21 0.365 0.351 0.726 0.708 1.089 1.062 0.042 0.041 0.072 0.084 0.082 0.143 0.040 0.253 0.066 0.507 0.090 0.761 0.027 0.278 0.053 0.556 0.093 0.833 0.007 0.048 0.018 0.087 0.076 0.106 0.441 0.149 0.876 0.313 1.321 0.449 0.189 0.058 0.315 0.152 0.413 0.32 0.236 0.402 0.488 0.797 0.734 1.194 0.022 0.035 0.041 0.072 0.096 0.065 0.092-0.011 0.184-0.016 0.276-0.026 0.433-0.049 0.864-0.117 1.298-0.158 0.103-0.009 0.18 0.016 0.259 0.067 0.405 0.258 0.81 0.516 1.214 0.775 0.083 0.053 0.151 0.093 0.256 0.023 0.369-0.246 0.751-0.475 1.12-0.722 0.161-0.108 0.318-0.184 0.515-0.122 0.011 0.004 0.024 0.002 0.036 0.003 0.461 0.019 0.912 0.122 1.37 0.156 0.062 0.004 0.096-0.004 0.13-0.060 0.264-0.432 0.532-0.861 0.795-1.292 0.061-0.101 0.144-0.157 0.256-0.191 0.473-0.146 0.94-0.311 1.406-0.474 0.053-0.019 0.076-0.049 0.084-0.1 0.019-0.138 0.043-0.276 0.057-0.415 0.036-0.358 0.053-0.717 0.107-1.073 0.019-0.121 0.055-0.221 0.151-0.31 0.356-0.336 0.703-0.68 1.052-1.022 0.042-0.041 0.084-0.075 0.056-0.151-0.188-0.503-0.371-1.009-0.555-1.514-0.014-0.040-0.026-0.079-0.004-0.12 0.055-0.106 0.084-0.222 0.125-0.334 0.142-0.391 0.281-0.782 0.424-1.173 0.023-0.062 0.017-0.103-0.033-0.155-0.354-0.363-0.735-0.699-1.090-1.060-0.059-0.059-0.099-0.123-0.109-0.208-0.020-0.174-0.050-0.347-0.066-0.522-0.032-0.361-0.047-0.724-0.125-1.080-0.005-0.024 0.001-0.048-0.036-0.060-0.49-0.163-0.976-0.332-1.467-0.49-0.099-0.031-0.166-0.079-0.218-0.165-0.272-0.444-0.547-0.886-0.819-1.33-0.024-0.039-0.050-0.053-0.094-0.048-0.089 0.011-0.179 0.012-0.267 0.029-0.444 0.087-0.896 0.098-1.341 0.169-0.053 0.009-0.097-0.004-0.143-0.034-0.442-0.283-0.886-0.562-1.327-0.848-0.073-0.047-0.123-0.050-0.198-0.001-0.435 0.283-0.875 0.558-1.312 0.838-0.059 0.038-0.119 0.052-0.187 0.041-0.236-0.037-0.474-0.057-0.712-0.081-0.294-0.031-0.582-0.102-0.868-0.112l-0.004 0.001zM18.093 22.026c-0.065-0.023-0.118 0.046-0.182 0.087-0.132 0.083-0.134 0.084-0.089 0.23 0.145 0.462 0.292 0.923 0.439 1.384 0.14 0.435 0.281 0.87 0.422 1.305 0.071 0.221 0.143 0.44 0.218 0.659 0.013 0.037 0.022 0.096 0.089 0.043 0.417-0.334 0.837-0.662 1.251-1.001 0.095-0.078 0.189-0.112 0.31-0.107 0.544 0.025 1.087 0.036 1.629 0.096 0.050 0.006 0.064 0.001 0.047-0.054-0.157-0.489-0.311-0.98-0.467-1.469-0.233-0.73-0.466-1.46-0.7-2.189-0.009-0.027 0.001-0.070-0.034-0.077-0.040-0.008-0.049 0.037-0.066 0.063-0.25 0.405-0.5 0.81-0.749 1.216-0.027 0.044-0.053 0.072-0.112 0.067-0.426-0.029-0.845-0.124-1.272-0.152-0.238-0.016-0.473-0.064-0.736-0.102v-0.001zM14.707 22.213c0.004-0.019-0.014-0.034-0.036-0.047-0.041-0.024-0.087-0.043-0.122-0.075-0.076-0.070-0.156-0.069-0.254-0.054-0.629 0.094-1.261 0.162-1.892 0.235-0.068 0.008-0.099-0.013-0.134-0.070-0.248-0.41-0.502-0.816-0.754-1.224-0.012-0.019-0.020-0.048-0.048-0.047-0.027 0.001-0.026 0.028-0.031 0.047-0.112 0.397-0.248 0.787-0.375 1.18-0.269 0.834-0.532 1.669-0.8 2.503-0.017 0.054-0.007 0.062 0.045 0.057 0.164-0.014 0.328-0.025 0.492-0.034 0.397-0.021 0.794-0.041 1.191-0.061 0.071-0.004 0.135 0.007 0.193 0.054 0.426 0.342 0.853 0.681 1.28 1.022 0.092 0.074 0.091 0.075 0.135-0.036 0.004-0.009 0.007-0.016 0.009-0.025 0.138-0.423 0.276-0.846 0.414-1.27 0.191-0.594 0.382-1.187 0.573-1.781 0.039-0.122 0.075-0.244 0.115-0.375l-0.001 0.001z"></path>
<path stroke-width="0.384" stroke-miterlimit="4" stroke-linecap="butt" stroke-linejoin="miter" d="M16.228 19.583h-0.002c-3.010-0.020-5.458-2.476-5.409-5.487 0.046-2.92 2.427-5.315 5.43-5.319l-0.019 10.806zM16.228 19.583c3.036-0.007 5.415-2.439 5.443-5.343 0.029-3.035-2.434-5.468-5.424-5.463l-0.019 10.806zM19.941 14.106l0.003-0.003c-0-1.908-1.628-3.596-3.687-3.607l3.684 3.61zM19.941 14.106l0.001 0.081M19.941 14.106l0.001 0.081M19.942 14.187c0.024 2.019-1.656 3.675-3.676 3.679M19.942 14.187l-3.685-3.691c-2.001-0.010-3.715 1.631-3.718 3.67-0.003 2.018 1.631 3.703 3.727 3.699M16.266 17.866v0z"></path>
</symbol>
<symbol id="icon-menu-mission" viewBox="0 0 33 32">
<path d="M29.237 22.014l-6-9.819c-0.062-0.102-0.15-0.187-0.255-0.246s-0.222-0.090-0.342-0.090c-0.12 0-0.238 0.031-0.342 0.090s-0.192 0.143-0.255 0.246l-4.142 6.778-5.361-9.006v-1.907h4.5c0.127 0 0.251-0.034 0.36-0.099s0.198-0.159 0.257-0.27 0.088-0.238 0.082-0.364c-0.006-0.127-0.047-0.249-0.117-0.354l-0.942-1.412 0.941-1.412c0.070-0.105 0.111-0.228 0.117-0.354s-0.022-0.252-0.082-0.364c-0.060-0.112-0.148-0.205-0.257-0.27s-0.233-0.1-0.359-0.1h-5.2c-0.186 0-0.364 0.074-0.495 0.205s-0.205 0.309-0.205 0.495v6.207l-7.1 11.931c-0.065 0.109-0.099 0.233-0.098 0.36v4.702c0 0.185 0.074 0.363 0.205 0.494s0.309 0.205 0.494 0.206h24c0.186-0 0.364-0.074 0.495-0.205s0.205-0.309 0.205-0.495v-4.582c0-0.129-0.036-0.255-0.103-0.365zM12.54 4.46h3.192l-0.474 0.712c-0.077 0.115-0.118 0.25-0.118 0.388s0.041 0.273 0.118 0.388l0.474 0.712h-3.192v-2.2zM22.64 13.902l1.907 3.12-1.907 0.781-1.907-0.78 1.907-3.121zM11.84 11.529l1.888 3.172-1.888 1.057-1.888-1.057 1.888-3.172zM5.34 26.26v-3.811l3.896-6.545 2.262 1.267c0.104 0.059 0.222 0.089 0.342 0.089s0.238-0.031 0.342-0.089l2.262-1.267 2.631 4.42-3.628 5.936h-8.108zM27.94 26.26h-12.852l4.905-8.026 2.382 0.974c0.17 0.069 0.36 0.069 0.53 0l2.382-0.974 2.653 4.342v3.685z"></path>
</symbol>
<symbol id="icon-menu-misuse" viewBox="0 0 33 32">
<path stroke-width="1.92" stroke-miterlimit="4" stroke-linecap="butt" stroke-linejoin="miter" d="M25.92 15.36c0 5.125-4.155 9.28-9.28 9.28s-9.28-4.155-9.28-9.28c0-5.125 4.155-9.28 9.28-9.28s9.28 4.155 9.28 9.28z"></path>
<path stroke-width="1.92" stroke-miterlimit="4" stroke-linecap="butt" stroke-linejoin="miter" d="M9.639 8.281l14.080 14.080"></path>
</symbol>
<symbol id="icon-menu-palette" viewBox="0 0 33 32">
<path stroke-width="1.92" stroke-miterlimit="4" stroke-linecap="butt" stroke-linejoin="miter" d="M16.64 6.4c-4.948 0-8.96 4.012-8.96 8.96s4.012 8.96 8.96 8.96c0.826 0 1.493-0.667 1.493-1.493 0-0.388-0.144-0.737-0.388-1-0.234-0.264-0.373-0.607-0.373-0.991 0-0.826 0.667-1.493 1.493-1.493h1.757c2.748 0 4.978-2.23 4.978-4.978 0-4.4-4.012-7.964-8.96-7.964zM11.164 15.929c-0.826 0-1.493-0.667-1.493-1.493s0.667-1.493 1.493-1.493 1.493 0.667 1.493 1.493c0 0.826-0.667 1.493-1.493 1.493zM14.151 11.947c-0.826 0-1.493-0.667-1.493-1.493s0.667-1.493 1.493-1.493c0.826 0 1.493 0.667 1.493 1.493s-0.667 1.493-1.493 1.493zM19.129 11.947c-0.826 0-1.493-0.667-1.493-1.493s0.667-1.493 1.493-1.493c0.826 0 1.493 0.667 1.493 1.493s-0.667 1.493-1.493 1.493zM22.116 15.929c-0.826 0-1.493-0.667-1.493-1.493s0.667-1.493 1.493-1.493c0.826 0 1.493 0.667 1.493 1.493s-0.667 1.493-1.493 1.493z"></path>
</symbol>
<symbol id="icon-menu-size" viewBox="0 0 33 32">
<path d="M7.84 5.319l-3.52-3.52-1.241 1.241 3.52 3.52h-1.399v1.76h4.4v-4.4h-1.76v1.399z"></path>
<path d="M28.080 6.56h-1.399l3.52-3.52-1.241-1.241-3.52 3.52v-1.399h-1.76v4.4h4.4v-1.76z"></path>
<path d="M28.080 24.16v-1.76h-4.4v4.4h1.76v-1.399l3.52 3.52 1.241-1.241-3.52-3.52h1.399z"></path>
<path d="M5.2 24.16h1.399l-3.52 3.52 1.241 1.241 3.52-3.52v1.399h1.76v-4.4h-4.4v1.76z"></path>
<path d="M10.48 21.52h12.32v-12.32h-12.32v12.32zM12.24 10.96h8.8v8.8h-8.8v-8.8z"></path>
</symbol>
<symbol id="icon-menu-space" viewBox="0 0 33 32">
<path stroke-width="2.176" stroke-miterlimit="4" stroke-linecap="butt" stroke-linejoin="miter" d="M9.644 11.496h12.712v11.567h-12.712v-11.567z"></path>
<path stroke-width="1.92" stroke-miterlimit="4" stroke-linecap="butt" stroke-linejoin="miter" d="M11.589 7.545h-6.469v5.154"></path>
<path stroke-width="1.92" stroke-miterlimit="4" stroke-linecap="butt" stroke-linejoin="miter" d="M20.411 7.545h6.469v5.154"></path>
<path stroke-width="1.92" stroke-miterlimit="4" stroke-linecap="butt" stroke-linejoin="miter" d="M11.589 27.015h-6.469v-5.154"></path>
<path stroke-width="1.92" stroke-miterlimit="4" stroke-linecap="butt" stroke-linejoin="miter" d="M20.411 27.015h6.469v-5.154"></path>
</symbol>
<symbol id="icon-menu-values" viewBox="0 0 33 32">
<path d="M27.939 11.432l-3.29-5.081c-0.255-0.394-0.687-0.629-1.157-0.629h-14.517c-0.468 0-0.9 0.235-1.156 0.627l-3.3 5.082c-0.337 0.519-0.285 1.205 0.127 1.667l10.553 11.848c0.261 0.293 0.636 0.461 1.029 0.461 0 0 0 0 0 0 0.393 0 0.768-0.168 1.029-0.461l10.554-11.848c0.411-0.462 0.464-1.147 0.128-1.665zM22.826 6.904l-2.767 4.279-2.769-4.279h5.536zM18.974 11.679h-5.49l2.745-4.242 2.745 4.242zM15.167 6.904l-2.761 4.267-2.76-4.267h5.521zM8.553 7.39l2.774 4.289h-5.56l2.786-4.289zM6.017 12.861h5.945l3.143 10.203-9.088-10.203zM16.229 22.698l-3.031-9.837h6.061l-3.031 9.837zM17.352 23.064l3.143-10.203h5.945l-9.089 10.203zM21.145 11.679l2.772-4.286 2.775 4.286h-5.547z"></path>
</symbol>
<symbol id="icon-menu-vision" viewBox="0 0 33 32">
<path d="M16.64 16.77c1.241 0 2.25-1.009 2.25-2.25s-1.009-2.25-2.25-2.25c-1.241 0-2.25 1.009-2.25 2.25s1.009 2.25 2.25 2.25zM16.64 13.77c0.414 0 0.75 0.336 0.75 0.75s-0.336 0.75-0.75 0.75c-0.414 0-0.75-0.336-0.75-0.75s0.336-0.75 0.75-0.75z"></path>
<path d="M7.818 18.132c2.906 2.052 5.957 3.137 8.822 3.137s5.916-1.085 8.822-3.137c2.174-1.535 3.499-3.058 3.554-3.122l0.423-0.49-0.423-0.49c-0.055-0.064-1.38-1.587-3.554-3.122-2.906-2.052-5.957-3.137-8.822-3.137s-5.916 1.085-8.822 3.137c-2.174 1.535-3.499 3.058-3.554 3.122l-0.423 0.49 0.423 0.49c0.055 0.064 1.381 1.587 3.554 3.122zM24.566 12.111c1.315 0.925 2.31 1.86 2.853 2.409-0.543 0.549-1.538 1.484-2.853 2.409-0.666 0.469-1.467 0.969-2.37 1.418 0.752-1.088 1.193-2.407 1.193-3.827s-0.441-2.739-1.193-3.827c0.903 0.449 1.704 0.95 2.37 1.418zM16.64 9.27c2.892 0 5.25 2.353 5.25 5.25 0 2.892-2.353 5.25-5.25 5.25-2.892 0-5.25-2.353-5.25-5.25 0-2.895 2.355-5.25 5.25-5.25zM11.085 10.691c-0.753 1.089-1.194 2.408-1.194 3.829s0.441 2.739 1.193 3.827c-0.902-0.449-1.704-0.95-2.37-1.418-1.314-0.925-2.31-1.859-2.853-2.409 0.518-0.523 1.448-1.396 2.679-2.282 0.746-0.536 1.602-1.077 2.544-1.547z"></path>
<path d="M15.89 1.771h1.5v3.75h-1.5v-3.75z"></path>
<path d="M20.463 5.941l1.499-2.998 1.341 0.67-1.499 2.998-1.341-0.67z"></path>
<path d="M25.039 8.82l2.25-3 1.2 0.9-2.25 3-1.2-0.9z"></path>
<path d="M9.966 3.606l1.341-0.67 1.499 2.998-1.341 0.67-1.499-2.998z"></path>
<path d="M4.791 6.72l1.2-0.9 2.25 3-1.2 0.9-2.25-3z"></path>
</symbol>
<symbol id="icon-official" viewBox="0 0 22 32">
<path fill="#fff" stroke="#000" stroke-width="0.9231" stroke-miterlimit="4" stroke-linecap="butt" stroke-linejoin="miter" style="fill: var(--color2, #fff); stroke: var(--color1, #000)" d="M0.462 0.462h21.231v19.074c0 5.748-4.9 9.527-10.604 11.637-6.23-2.623-10.627-5.885-10.627-11.637v-19.074z"></path>
<path fill="currentColor"  d="M10.493 10.434l-1.327 2.708-2.97 0.436c-0.533 0.078-0.746 0.738-0.36 1.117l2.149 2.107-0.508 2.976c-0.091 0.538 0.472 0.941 0.943 0.689l2.657-1.405 2.657 1.405c0.472 0.25 1.035-0.151 0.943-0.689l-0.508-2.976 2.149-2.107c0.386-0.378 0.173-1.039-0.36-1.117l-2.97-0.436-1.327-2.708c-0.238-0.483-0.927-0.489-1.167 0z"></path>
</symbol>
<symbol id="icon-title-font" viewBox="0 0 38 32">
<path d="M35.803 27.429h-1.925l-10.747-25.879c-0.177-0.452-0.512-0.844-0.959-1.122s-0.982-0.427-1.532-0.427h-3.878c-0.549-0-1.085 0.149-1.532 0.427s-0.782 0.67-0.959 1.122l-10.747 25.879h-1.925c-0.349 0-0.683 0.12-0.93 0.335s-0.385 0.505-0.385 0.808v2.286c0 0.303 0.139 0.594 0.385 0.808s0.581 0.335 0.93 0.335h10.524c0.349 0 0.684-0.12 0.93-0.335s0.385-0.505 0.385-0.808v-2.286c0-0.303-0.139-0.594-0.385-0.808s-0.581-0.335-0.93-0.335h-1.61l1.916-4.571h12.544l1.916 4.571h-1.61c-0.349 0-0.683 0.12-0.93 0.335s-0.385 0.505-0.385 0.808v2.286c0 0.303 0.139 0.594 0.385 0.808s0.581 0.335 0.93 0.335h10.524c0.349 0 0.683-0.12 0.93-0.335s0.385-0.505 0.385-0.808v-2.286c0-0.303-0.139-0.594-0.385-0.808s-0.581-0.335-0.93-0.335zM14.825 17.143l3.877-9.249 3.877 9.249h-7.753z"></path>
</symbol>
<symbol id="icon-value_item" viewBox="0 0 29 32">
<path d="M14.319 4.853c1.223 0 2.218-1.059 2.218-2.36s-0.995-2.36-2.218-2.36c-1.223 0-2.218 1.059-2.218 2.36s0.995 2.36 2.218 2.36zM14.319 1.345c0.595 0 1.079 0.515 1.079 1.148s-0.484 1.148-1.079 1.148c-0.595 0-1.079-0.515-1.079-1.148s0.484-1.148 1.079-1.148z"></path>
<path d="M2.218 14.143c1.223 0 2.218-1.058 2.218-2.36s-0.995-2.36-2.218-2.36-2.218 1.059-2.218 2.36c0 1.301 0.995 2.36 2.218 2.36zM2.218 10.636c0.595 0 1.079 0.515 1.079 1.148s-0.484 1.148-1.079 1.148-1.079-0.515-1.079-1.148c0-0.633 0.484-1.148 1.079-1.148z"></path>
<path d="M15.748 23.301h-2.842c-1.679 0-3.045 1.447-3.045 3.225v3.461c0 0.738 0.564 1.339 1.258 1.339h6.417c0.693 0 1.258-0.6 1.258-1.339v-3.461c-0-1.778-1.366-3.225-3.045-3.225zM12.905 24.513h2.842c1.051 0 1.907 0.904 1.907 2.014v3.461c0 0.065-0.058 0.126-0.119 0.126h-0.813v-3.338c0-0.263-0.2-0.476-0.447-0.476s-0.448 0.213-0.448 0.476v3.338h-3.002v-3.338c0-0.263-0.2-0.476-0.447-0.476s-0.448 0.213-0.448 0.476v3.338h-0.812c-0.062 0-0.12-0.062-0.12-0.126v-3.461c0-1.11 0.856-2.014 1.907-2.014z"></path>
<path d="M16.537 20.312c0-1.301-0.995-2.359-2.218-2.359s-2.218 1.058-2.218 2.359c0 1.302 0.995 2.36 2.218 2.36s2.218-1.059 2.218-2.36zM13.24 20.312c0-0.632 0.484-1.148 1.079-1.148s1.079 0.515 1.079 1.148c0 0.633-0.484 1.148-1.079 1.148s-1.079-0.515-1.079-1.148z"></path>
<path d="M4.157 16.841c0-0.003-0-0.006-0-0.008 0.009-0.732-0.35-1.419-0.942-1.797-0.598-0.381-1.346-0.39-1.952-0.024-0.615 0.371-0.998 1.062-0.998 1.803v5.425c0 0.584 0.43 1.043 0.98 1.043h1.919c0.548 0 0.994-0.468 0.994-1.043l-0-5.398zM1.824 16.065c0.25-0.151 0.559-0.147 0.806 0.010s0.395 0.445 0.389 0.751c0 0.002 0 0.005 0 0.007s-0 0.005-0 0.007l0 5.229h-1.616v-5.256c0-0.301 0.165-0.595 0.421-0.749z"></path>
<path d="M24.22 27.324l-2.403-14.281c-0.167-0.994-0.969-1.715-1.908-1.715h-1.115v-2.621c-0-1.779-1.366-3.225-3.045-3.225h-2.842c-1.679 0-3.045 1.447-3.045 3.225v2.621h-1.145c-0.932 0-1.759 0.738-1.923 1.716v0l-2.388 14.282c-0.099 0.591 0.058 1.2 0.429 1.672 0.378 0.48 0.916 0.754 1.479 0.754h2.198c0.315 0 0.569-0.271 0.569-0.605s-0.255-0.606-0.569-0.606h-2.198c-0.225 0-0.446-0.117-0.606-0.32-0.157-0.199-0.221-0.441-0.181-0.682v-0.001l2.388-14.28c0.069-0.409 0.414-0.717 0.802-0.717h11.193c0.381 0 0.719 0.308 0.787 0.717v0l2.403 14.28c0.040 0.241-0.024 0.483-0.181 0.682-0.158 0.2-0.39 0.32-0.621 0.32h-2.154c-0.314 0-0.569 0.271-0.569 0.606s0.255 0.605 0.569 0.605h2.154c0.564 0 1.122-0.282 1.494-0.754s0.528-1.082 0.429-1.673zM10.999 8.706c0-1.11 0.855-2.013 1.907-2.013h2.842c1.051 0 1.907 0.903 1.907 2.013v2.621h-0.932v-2.372c0-0.263-0.2-0.476-0.447-0.476s-0.447 0.213-0.447 0.476v2.372h-3.003v-2.372c0-0.263-0.2-0.476-0.447-0.476s-0.447 0.213-0.447 0.476v2.372h-0.932v-2.621h0z"></path>
<path d="M26.422 14.143c1.223 0 2.218-1.058 2.218-2.36s-0.995-2.36-2.218-2.36c-1.223 0-2.218 1.059-2.218 2.36s0.995 2.36 2.218 2.36zM26.422 10.636c0.595 0 1.079 0.515 1.079 1.148s-0.484 1.148-1.079 1.148c-0.595 0-1.079-0.515-1.079-1.148s0.484-1.148 1.079-1.148z"></path>
<path d="M27.377 15.011c-0.606-0.366-1.354-0.356-1.952 0.025-0.591 0.377-0.958 1.068-0.958 1.805v5.399c0 0.585 0.43 1.043 0.979 1.043h1.934c0.549 0 0.979-0.458 0.979-1.043v-5.424c-0-0.746-0.377-1.438-0.983-1.803zM26.009 16.075c0.247-0.157 0.556-0.161 0.806-0.010 0.25 0.15 0.406 0.438 0.406 0.749v5.256h-1.615v-5.23c0-0.309 0.158-0.609 0.404-0.765z"></path>
</symbol>
  <symbol fill="none" xmlns="http://www.w3.org/2000/svg" viewBox="0 0 121 85" id="icon-change">
    <rect x="0.5" y="0.5" width="120" height="84" stroke="#BABABA"></rect>
    <line y1="10.5" x2="121" y2="10.5" stroke="#BABABA"></line>
    <line x1="33.5" y1="10" x2="33.5" y2="85" stroke="#BABABA"></line>
    <rect x="39" y="3" width="26" height="5" rx="2.5" fill="black"></rect>
    <rect x="3" y="39" width="28" height="6" rx="1" fill="black"></rect>
  </symbol>
</defs>
</svg>
