<svg width="160" height="40" viewBox="0 0 160 40" fill="none" xmlns="http://www.w3.org/2000/svg">
<g clip-path="url(#clip0_21_314)">
<path d="M4.31815 25.2642H4.74006H5.16196L8.46949 32.9163H8.04617H7.62144L6.52646 30.3296H2.91274L1.8234 32.9163H1.4156H1.00922L4.31815 25.2642ZM3.20624 29.638H6.24848L4.71466 26.0511H4.72171L3.20624 29.638Z" class="main-color"/>
<path d="M14.901 31.2751C14.6456 31.8306 14.2731 32.2641 13.7778 32.5783C13.2839 32.8911 12.7251 33.0496 12.1015 33.0496C11.2379 33.0496 10.5055 32.762 9.90866 32.1897C9.31037 31.6188 9.01123 30.9174 9.01123 30.0883C9.01123 29.2551 9.31037 28.5551 9.90866 27.9828C10.5055 27.4104 11.2365 27.1243 12.1015 27.1243C12.7195 27.1243 13.2726 27.2856 13.7679 27.6096C14.2632 27.9337 14.6399 28.3812 14.901 28.9535H14.1249C13.9034 28.5832 13.6155 28.2928 13.2585 28.081C12.9001 27.8705 12.5149 27.7667 12.1029 27.7667C11.4411 27.7667 10.8837 27.9898 10.4279 28.4387C9.97216 28.889 9.74498 29.4389 9.74498 30.0883C9.74498 30.7378 9.97216 31.2863 10.4279 31.7366C10.8823 32.1827 11.4411 32.4085 12.1029 32.4085C12.5262 32.4085 12.9156 32.3089 13.2726 32.1069C13.631 31.9063 13.9147 31.6286 14.1249 31.2765H14.901V31.2751Z" class="main-color"/>
<path d="M21.6336 31.2751C21.3782 31.8306 21.007 32.2641 20.5104 32.5783C20.0151 32.8911 19.4577 33.0496 18.834 33.0496C17.9719 33.0496 17.2395 32.762 16.6412 32.1897C16.0444 31.6188 15.7452 30.9174 15.7452 30.0883C15.7452 29.2551 16.0444 28.5551 16.6412 27.9828C17.2395 27.4104 17.9704 27.1243 18.834 27.1243C19.4521 27.1243 20.0052 27.2856 20.5005 27.6096C20.9972 27.9323 21.3725 28.3812 21.635 28.9535H20.8561C20.6374 28.5832 20.3481 28.2928 19.9911 28.081C19.6341 27.8705 19.2489 27.7667 18.8354 27.7667C18.1751 27.7667 17.6177 27.9898 17.1605 28.4387C16.7061 28.889 16.479 29.4389 16.479 30.0883C16.479 30.7378 16.7061 31.2863 17.1605 31.7366C17.6163 32.1827 18.1751 32.4085 18.8354 32.4085C19.2587 32.4085 19.6496 32.3089 20.0066 32.1069C20.365 31.9063 20.6472 31.6286 20.8575 31.2765H21.6336V31.2751Z" class="main-color"/>
<path d="M23.3503 32.1882C22.7746 31.6173 22.4868 30.9159 22.4868 30.0869C22.4868 29.2536 22.7746 28.5536 23.3503 27.9813C23.926 27.409 24.6287 27.1228 25.4584 27.1228C26.2952 27.1228 27.0021 27.409 27.5764 27.9813C28.1493 28.5536 28.4358 29.2536 28.4358 30.0869C28.4358 30.9159 28.1493 31.6173 27.5764 32.1882C27.0021 32.7606 26.2952 33.0481 25.4584 33.0481C24.6287 33.0495 23.926 32.7606 23.3503 32.1882ZM27.0544 31.7351C27.4875 31.2863 27.7049 30.7364 27.7049 30.0869C27.7049 29.4374 27.4875 28.8889 27.0544 28.4372C26.6197 27.9883 26.0878 27.7653 25.4584 27.7653C24.8333 27.7653 24.3014 27.9883 23.8682 28.4372C23.435 28.8875 23.2191 29.4374 23.2191 30.0869C23.2191 30.7364 23.435 31.2848 23.8682 31.7351C24.3014 32.1812 24.8333 32.4071 25.4584 32.4071C26.0878 32.4071 26.6197 32.1812 27.0544 31.7351Z" class="main-color"/>
<path d="M30.2408 30.6129C30.2408 31.174 30.3904 31.6131 30.6924 31.9287C30.9943 32.2443 31.412 32.4014 31.9482 32.4014C32.5267 32.4014 32.974 32.2163 33.2887 31.8459C33.6048 31.477 33.7614 30.9482 33.7614 30.2608V27.2546H34.1283H34.4937V32.9163H34.1537H33.8094V32.0073C33.7515 32.1139 33.6824 32.2121 33.6048 32.3117C33.2125 32.804 32.6664 33.0495 31.968 33.0495C31.1947 33.0495 30.5936 32.8349 30.1604 32.407C29.7272 31.9778 29.5099 31.3844 29.5099 30.6283V27.2546H29.8754H30.2422V30.6129H30.2408Z" class="main-color"/>
<path d="M35.8637 27.2547H36.2249H36.5918V27.9855L36.7075 27.8438C37.1069 27.3514 37.6628 27.106 38.3697 27.106C39.1571 27.106 39.7681 27.3472 40.2098 27.8298C40.6514 28.3123 40.8701 28.9801 40.8701 29.84V32.9163H40.5047H40.1392V29.8203C40.1392 29.1779 39.984 28.6757 39.6707 28.3095C39.3589 27.9462 38.9257 27.7653 38.3697 27.7653C37.8011 27.7653 37.3623 27.949 37.0561 28.318C36.7499 28.6869 36.596 29.2115 36.596 29.8961V32.9163H36.2306H35.8637V27.2547Z" class="main-color"/>
<path d="M42.8908 32.9163V27.9056H41.683V27.2547H42.8908V25.2754H43.6232V27.2547H44.9693V27.9056H43.6232V32.9163H42.8908Z" class="main-color"/>
<path d="M45.7371 27.2547H46.1026H46.4695V32.9163H46.1026H45.7371V27.2547ZM45.7414 25.2642H46.4695V26.5631H45.7414V25.2642Z" class="main-color"/>
<path d="M47.821 27.2547H48.1809H48.5477V27.9855L48.6634 27.8438C49.0642 27.3514 49.6187 27.106 50.3257 27.106C51.1116 27.106 51.724 27.3472 52.1671 27.8298C52.6074 28.3123 52.8261 28.9801 52.8261 29.84V32.9163H52.4606H52.0951V29.8203C52.0951 29.1779 51.9399 28.6757 51.6281 28.3095C51.3148 27.9462 50.883 27.7653 50.3257 27.7653C49.757 27.7653 49.3182 27.949 49.012 28.318C48.7058 28.6869 48.552 29.2115 48.552 29.8961V32.9163H48.1865H47.821V27.2547Z" class="main-color"/>
<path d="M56.9591 34.4818C57.6463 34.4818 58.1698 34.2952 58.5254 33.9193C58.8838 33.5433 59.063 32.9948 59.063 32.2738V31.9596L58.8697 32.184C58.3109 32.7578 57.6053 33.0481 56.7559 33.0481C55.9502 33.0481 55.2672 32.7606 54.7113 32.1882C54.1539 31.6173 53.8759 30.9159 53.8759 30.0869C53.8759 29.2536 54.1539 28.5536 54.7141 27.9813C55.2729 27.409 55.9558 27.1228 56.7601 27.1228C57.6082 27.1228 58.3109 27.409 58.8697 27.9813L59.063 28.1973V27.2533H59.7953V32.1882C59.7953 33.1281 59.5484 33.8519 59.0559 34.3597C58.5635 34.8675 57.8636 35.1229 56.9563 35.1229C56.231 35.1229 55.6186 34.9433 55.1176 34.58C54.6153 34.2167 54.2809 33.7173 54.1158 33.0776H54.8919C55.0584 33.5167 55.3251 33.8646 55.6905 34.11C56.056 34.3569 56.4779 34.4818 56.9591 34.4818ZM56.8476 27.7442C56.2225 27.7442 55.6919 27.9687 55.2573 28.419C54.8241 28.8693 54.6068 29.422 54.6068 30.0771C54.6068 30.7293 54.8241 31.282 55.2573 31.7323C55.6919 32.1798 56.2225 32.4057 56.8476 32.4057C57.4783 32.4057 58.0089 32.1798 58.4449 31.7295C58.8781 31.2778 59.094 30.7251 59.094 30.0714C59.094 29.4192 58.8781 28.8679 58.4449 28.4162C58.0089 27.9687 57.4783 27.7442 56.8476 27.7442Z" class="main-color"/>
<path d="M74.8556 32.9163V25.2642H78.7473V25.6078V25.9557H75.6274V28.708H78.6316V29.0531V29.3996H75.6274V32.9163H75.2422H74.8556Z" class="main-color"/>
<path d="M66.4852 29.0993C65.8065 29.6071 65.3592 30.0139 65.1503 30.3113C64.9401 30.6143 64.8343 30.8921 64.8343 31.1488C64.8343 31.4532 64.9641 31.7183 65.2223 31.9554C65.4805 32.1855 65.7966 32.3019 66.172 32.3019C66.457 32.3019 66.735 32.2444 67.0087 32.1279C67.4405 31.9414 67.9287 31.6299 68.4833 31.1895L67.2161 29.9017C66.996 29.6745 66.7547 29.4065 66.4852 29.0993ZM66.5882 28.0332C66.9777 27.733 67.2712 27.437 67.4673 27.1467C67.607 26.9419 67.6747 26.7595 67.6747 26.5968C67.6747 26.413 67.5844 26.2559 67.4038 26.1198C67.2232 25.988 66.9847 25.9192 66.6884 25.9192C66.4034 25.9192 66.1748 25.988 65.9956 26.124C65.8164 26.2629 65.7289 26.4256 65.7289 26.615C65.7289 26.7609 65.7656 26.8942 65.8375 27.0218C66.0153 27.3318 66.2651 27.6699 66.5882 28.0332ZM70.1116 29.8989L70.6662 30.4797C70.3134 30.7813 69.979 31.045 69.6686 31.2722C69.8774 31.4728 70.1596 31.7436 70.5124 32.0901C70.7889 32.3664 71.0274 32.6203 71.2348 32.8476H70.113L69.0477 31.7632C68.3774 32.2935 67.8356 32.6414 67.4179 32.8027C66.9988 32.964 66.5572 33.0482 66.0943 33.0482C65.4763 33.0482 64.9782 32.8714 64.6029 32.5179C64.2289 32.1672 64.0427 31.7281 64.0427 31.2021C64.0427 30.8065 64.1697 30.4067 64.4208 30.0069C64.672 29.6071 65.1842 29.1021 65.9575 28.4933C65.5243 27.9631 65.2477 27.5745 65.1221 27.3192C65.0008 27.0695 64.9387 26.8268 64.9387 26.5982C64.9387 26.1998 65.0925 25.8701 65.4015 25.6092C65.7571 25.3034 66.2002 25.1533 66.7293 25.1533C67.0623 25.1533 67.3685 25.2178 67.6437 25.3525C67.9203 25.4886 68.1305 25.6667 68.2758 25.8926C68.4212 26.1198 68.4931 26.3597 68.4931 26.615C68.4931 26.8815 68.3986 27.1691 68.2095 27.4679C68.0204 27.7709 67.6465 28.1581 67.0891 28.628L68.3055 29.8975L69.1013 30.7013C69.526 30.3843 69.8633 30.1164 70.1116 29.8989Z" class="main-color"/>
<path d="M79.8507 27.2547H80.2162H80.5816V32.9163H80.2162H79.8507V27.2547ZM79.8549 25.2642H80.5816V26.5631H79.8549V25.2642Z" class="main-color"/>
<path d="M81.932 27.2547H82.2932H82.6587V27.9855L82.7758 27.8438C83.1751 27.3514 83.7283 27.106 84.438 27.106C85.224 27.106 85.8364 27.3472 86.2781 27.8298C86.7183 28.3123 86.937 28.9801 86.937 29.84V32.9163H86.5716H86.2075V29.8203C86.2075 29.1779 86.0509 28.6757 85.7405 28.3095C85.4272 27.9462 84.9954 27.7653 84.438 27.7653C83.868 27.7653 83.4291 27.949 83.1229 28.318C82.8167 28.6869 82.6629 29.2115 82.6629 29.8961V32.9163H82.2975H81.932V27.2547Z" class="main-color"/>
<path d="M91.0376 33.0496C90.1994 33.0496 89.4925 32.762 88.9126 32.1897C88.3312 31.6188 88.0419 30.9174 88.0419 30.0883C88.0419 29.2551 88.3312 28.5551 88.9126 27.9828C89.4925 27.4104 90.1994 27.1243 91.0376 27.1243C91.8842 27.1243 92.5884 27.4104 93.1486 27.987L93.3334 28.203V27.2547H94.0672V32.9163H93.7017H93.3334V31.9709C93.2755 32.0494 93.2135 32.121 93.1486 32.1883C92.587 32.7606 91.8828 33.0496 91.0376 33.0496ZM91.0687 27.7653C90.4266 27.7653 89.8805 27.9898 89.4361 28.4401C88.993 28.8918 88.7714 29.4431 88.7714 30.0968C88.7714 30.7505 88.9916 31.3017 89.4361 31.752C89.8805 32.2009 90.4266 32.4254 91.0687 32.4254C91.7107 32.4254 92.2568 32.2009 92.697 31.7478C93.1415 31.2989 93.3644 30.7448 93.3644 30.0911C93.3644 29.4389 93.1429 28.889 92.697 28.4373C92.2568 27.9884 91.7107 27.7653 91.0687 27.7653Z" class="main-color"/>
<path d="M95.3892 27.2547H95.7476H96.113V27.9855L96.233 27.8438C96.6309 27.3514 97.1854 27.106 97.8952 27.106C98.6812 27.106 99.2907 27.3472 99.7338 27.8298C100.17 28.3123 100.394 28.9801 100.394 29.84V32.9163H100.026H99.6604V29.8203C99.6604 29.1779 99.5052 28.6757 99.1948 28.3095C98.8815 27.9462 98.4497 27.7653 97.8952 27.7653C97.3223 27.7653 96.8849 27.949 96.5787 28.318C96.2739 28.6869 96.1187 29.2115 96.1187 29.8961V32.9163H95.7532H95.3892V27.2547Z" class="main-color"/>
<path d="M107.373 31.2751C107.119 31.8306 106.745 32.2641 106.249 32.5783C105.753 32.8911 105.193 33.0496 104.572 33.0496C103.71 33.0496 102.979 32.762 102.38 32.1897C101.78 31.6188 101.482 30.9174 101.482 30.0883C101.482 29.2551 101.78 28.5551 102.38 27.9828C102.979 27.4104 103.709 27.1243 104.572 27.1243C105.188 27.1243 105.742 27.2856 106.242 27.6096C106.734 27.9323 107.112 28.3812 107.373 28.9535H106.596C106.374 28.5832 106.086 28.2928 105.728 28.081C105.374 27.8705 104.987 27.7667 104.574 27.7667C103.912 27.7667 103.355 27.9898 102.9 28.4387C102.445 28.889 102.216 29.4389 102.216 30.0883C102.216 30.7378 102.445 31.2863 102.9 31.7366C103.353 32.1827 103.912 32.4085 104.574 32.4085C104.997 32.4085 105.387 32.3089 105.744 32.1069C106.103 31.9063 106.386 31.6286 106.596 31.2765H107.373V31.2751Z" class="main-color"/>
<path d="M111.148 33.0496C110.324 33.0496 109.623 32.762 109.048 32.1897C108.474 31.6188 108.188 30.9174 108.188 30.0883C108.188 29.2551 108.474 28.5551 109.048 27.9828C109.623 27.4104 110.324 27.1243 111.148 27.1243C111.982 27.1243 112.683 27.4104 113.256 27.9828C113.829 28.5551 114.117 29.2551 114.117 30.0883C114.12 30.1781 114.114 30.2707 114.099 30.3591H108.931C108.984 30.8893 109.197 31.3466 109.572 31.7352C110.008 32.1813 110.543 32.4071 111.174 32.4071C111.622 32.4071 112.019 32.2935 112.36 32.0691C112.7 31.8418 112.975 31.5136 113.18 31.0773H113.936C113.733 31.6693 113.378 32.1448 112.867 32.5067C112.355 32.8672 111.782 33.0496 111.148 33.0496ZM113.358 29.7082C113.284 29.2172 113.078 28.795 112.736 28.4373C112.304 27.9884 111.773 27.7653 111.148 27.7653C110.526 27.7653 109.997 27.9898 109.564 28.4401C109.228 28.795 109.02 29.2172 108.938 29.7068H113.358V29.7082Z" class="main-color"/>
<path d="M19.8411 18.8621C16.9894 20.8835 13.9923 21.8949 10.8569 21.8949C9.70973 21.8949 8.64014 21.7771 7.6524 21.5372C6.66607 21.2959 5.75735 20.9396 4.92765 20.4613C4.09795 19.9829 3.34021 19.3825 2.65443 18.6587C1.96866 17.9348 1.44374 17.218 1.08392 16.5096C0.724103 15.7998 0.45318 15.0044 0.273975 14.1221C0.0919485 13.2411 0.00305176 12.2746 0.00305176 11.2225C0.00305176 8.8785 0.439069 6.87393 1.30828 5.20883C2.1789 3.54373 3.40935 2.26159 5.00102 1.36241C6.5927 0.463232 8.50892 0.0129395 10.7553 0.0129395C13.0426 0.0129395 14.9335 0.505315 16.4221 1.49427C17.9136 2.48323 18.9522 4.00385 19.5363 6.05331L17.5439 6.64949C16.4334 3.32771 14.1249 1.66682 10.6199 1.66682C8.00093 1.66682 5.92668 2.51409 4.40132 4.21005C2.87173 5.90882 2.10835 8.18132 2.10835 11.0248C2.10835 12.7502 2.42725 14.2988 3.06505 15.6666C3.70285 17.0329 4.66519 18.1382 5.95349 18.9785C7.23896 19.8216 8.80947 20.2424 10.665 20.2424C13.2924 20.2424 15.6799 19.4695 17.8247 17.9264V12.746H10.9458V11.0037H19.8411V18.8621Z" class="sec-color"/>
<path d="M22.5095 0.375977H24.5936V13.9366C24.5936 18.1548 26.6693 20.2632 30.8178 20.2632C34.931 20.2632 36.9884 18.166 36.9884 13.9703V0.377379H39.0725V13.7725C39.0725 19.2041 36.3379 21.9213 30.8644 21.9213C25.2963 21.9213 22.5109 19.2083 22.5109 13.7837V0.375977H22.5095Z" class="sec-color"/>
<path d="M44.6771 11.4874V19.8437H51.4191C52.3801 19.8437 53.2239 19.6908 53.9506 19.3808C54.6815 19.0722 55.26 18.6023 55.6904 17.9696C56.1222 17.3384 56.3381 16.55 56.3381 15.6102C56.3381 14.3477 55.8978 13.3433 55.0145 12.5998C54.1326 11.8577 52.96 11.486 51.4953 11.486H44.6771V11.4874ZM44.6771 2.16171V9.69043H51.0014C51.9116 9.69043 52.6891 9.53192 53.3382 9.21629C53.9872 8.90067 54.4896 8.46019 54.8466 7.89347C55.2022 7.32675 55.3814 6.6478 55.3814 5.85523C55.3814 5.22258 55.2699 4.66988 55.0498 4.19434C54.8282 3.7216 54.5051 3.33163 54.0804 3.02723C53.6571 2.72002 53.1096 2.50259 52.4365 2.36371C51.7648 2.22764 50.9309 2.16031 49.9333 2.16031H44.6771V2.16171ZM42.5831 21.5523V0.375977H50.7333C52.0837 0.375977 53.2606 0.582185 54.261 0.997408C55.2643 1.41403 56.0403 2.02424 56.5935 2.83505C57.1452 3.64165 57.4204 4.60956 57.4204 5.73319C57.4204 6.65201 57.1904 7.5049 56.7275 8.29046C56.2661 9.07741 55.4646 9.78582 54.3231 10.4185C55.8033 10.8898 56.8616 11.5673 57.4994 12.4525C58.1372 13.3391 58.4575 14.3911 58.4575 15.6116C58.4575 16.8025 58.2091 17.8265 57.7139 18.6865C57.2186 19.5464 56.4481 20.2393 55.3997 20.764C54.3513 21.2886 53.0969 21.5523 51.6336 21.5523H42.5831Z" class="sec-color"/>
<path d="M75.2834 21.5523H61.0035V0.375977H74.8319V2.16171H63.065V9.76758H73.9528V11.5112H63.065V19.8003H75.2834V21.5523Z" class="sec-color"/>
<path d="M119.473 21.5523H117.424L117.764 2.54608L110.368 21.5523H108.655L101.371 2.54608L101.698 21.5523H99.6718V0.375977H102.54L109.51 18.7089L116.558 0.375977H119.473V21.5523Z" class="sec-color"/>
<path d="M135.758 13.1412L131.274 2.48008L126.997 13.1412H135.758ZM141.577 21.5523H139.269L136.454 14.8063H126.368L123.651 21.5523H121.436L130.228 0.374512H132.367L141.577 21.5523Z" class="sec-color"/>
<path d="M159.997 21.5523H157.834L145.363 3.50558L145.531 21.5523H143.482V0.375977H145.531L158.139 18.6317L157.981 0.375977H159.997V21.5523Z" class="sec-color"/>
<path d="M119.441 39.1237C118.788 38.7281 118.517 38.2568 118.517 37.6592C118.517 36.6478 119.55 35.8735 120.423 35.4919V35.4204C119.66 35.2576 119.205 34.6965 119.205 34.1565C119.205 33.2895 120.206 32.6737 120.841 32.4395V32.4044C120.131 32.0958 119.152 31.2639 119.152 29.6577C119.152 28.4836 120.206 27.0374 122.259 27.0374C123.64 27.0374 124.366 27.8692 124.549 28.0866C125.039 27.7444 125.655 27.381 126.255 27.381C126.858 27.381 127.147 27.778 127.11 28.1399C127.11 28.4836 126.821 28.8091 126.4 28.8091C126.093 28.8091 125.911 28.6632 125.765 28.5383C125.655 28.4654 125.53 28.3756 125.384 28.3756C125.257 28.3756 125.037 28.3756 124.803 28.485C124.947 28.8469 125.073 29.2439 125.073 29.8583C125.073 30.5639 124.875 31.2499 124.401 31.811C123.928 32.3342 122.894 32.713 122.293 32.713C121.895 32.713 121.639 32.6948 121.366 32.6232C121.003 32.7691 120.403 33.131 120.403 33.636C120.403 34.3767 121.312 34.322 122.528 34.2504C124.02 34.1775 124.927 34.3402 125.654 34.9013C126.438 35.4779 126.527 36.2017 126.548 36.6338C126.548 37.4838 126.238 38.1852 125.331 38.8572C124.857 39.1995 123.769 39.7045 122.222 39.7045C121.347 39.7016 120.314 39.6133 119.441 39.1237ZM125.438 37.2622C125.438 36.1961 124.621 35.3825 122.804 35.5101L121.059 35.6378C120.496 35.7809 119.609 36.3953 119.609 37.3702C119.609 37.8205 119.95 38.3648 120.316 38.6173C120.914 39.0339 121.569 39.1223 122.859 39.1223C123.53 39.1237 125.528 38.6552 125.438 37.2622ZM123.748 29.5652C123.748 28.774 123.584 28.3013 123.255 27.9407C123.021 27.7051 122.658 27.5438 122.383 27.5438C121.965 27.5438 121.531 27.6153 121.095 28.0488C120.513 28.6632 120.439 29.4922 120.439 30.181C120.439 30.7954 120.639 31.3565 121.023 31.7535C121.346 32.0593 121.675 32.2038 122.111 32.2038C123.347 32.2038 123.748 30.7056 123.748 29.5652Z" class="sec-color"/>
<path d="M128.832 29.9817C128.832 29.0615 128.688 28.8791 128.18 28.6084L127.837 28.4303C127.727 28.3924 127.69 28.3741 127.69 28.3012V28.1946C127.69 28.1216 127.725 28.0866 127.837 28.0333L129.635 27.1102C129.742 27.0555 129.814 27.0373 129.887 27.0373C129.997 27.0373 130.014 27.1467 130.014 27.2547L130.106 28.5369H130.181C130.724 27.705 131.576 26.9644 132.359 26.9644C132.977 26.9644 133.286 27.3445 133.286 27.7597C133.286 28.283 132.85 28.6435 132.523 28.6435C132.321 28.6435 132.142 28.5719 131.997 28.5004C131.85 28.4106 131.631 28.3545 131.396 28.3545C131.106 28.3545 130.632 28.5355 130.325 29.1134C130.216 29.314 130.143 29.6367 130.143 29.6914V33.4494C130.143 34.0091 130.271 34.1901 130.651 34.1901H131.504C131.612 34.1901 131.63 34.2448 131.63 34.3514V34.6768C131.63 34.7848 131.612 34.8382 131.541 34.8382C131.432 34.8382 130.596 34.7849 129.616 34.7849C128.489 34.7849 127.725 34.8382 127.617 34.8382C127.543 34.8382 127.505 34.8031 127.505 34.6586V34.35C127.505 34.2251 127.543 34.1887 127.708 34.1887H128.417C128.688 34.1887 128.816 34.0807 128.816 33.8436C128.832 33.2474 128.832 32.6162 128.832 31.6777V29.9817Z" class="sec-color"/>
<path d="M134.723 33.758C133.883 32.7634 133.722 32.0943 133.722 30.8108C133.722 29.8905 134.213 28.7361 135.284 27.9042C136.23 27.1804 137.122 27.0359 137.721 27.0359C138.72 27.0359 139.721 27.5423 140.265 28.0852C141.081 28.9156 141.5 29.8555 141.5 31.0296C141.5 32.9991 139.721 35.0051 137.484 35.0051C136.609 35.0051 135.485 34.6614 134.723 33.758ZM139.971 30.8486C139.971 28.8441 138.503 27.5774 137.573 27.5774C137.084 27.5774 136.609 27.6868 136.175 28.1567C135.466 28.8791 135.212 29.6198 135.212 30.9931C135.212 32.0031 135.323 32.6905 135.901 33.5223C136.317 34.1185 136.846 34.4622 137.702 34.4622C139.083 34.4622 139.971 32.7817 139.971 30.8486Z" class="sec-color"/>
<path d="M149.714 31.1194C149.714 31.9863 149.714 32.8729 149.747 33.2516C149.802 33.8128 150.004 33.8857 150.223 33.8857C150.332 33.8857 150.604 33.8857 150.823 33.831C150.969 33.7959 151.02 33.831 151.039 33.9039L151.092 34.1382C151.112 34.2476 151.074 34.2841 151.003 34.3023L149.093 34.9336C148.984 34.9701 148.877 35.0065 148.731 35.0065C148.658 35.0065 148.585 34.9715 148.566 34.7891L148.422 33.7426H148.387C147.876 34.4468 146.822 35.0065 145.916 35.0065C145.406 35.0065 144.806 34.9518 144.206 34.1747C143.461 33.2152 143.496 32.6204 143.496 30.6341V28.5187C143.481 28.0137 143.223 27.8874 142.806 27.8327C142.497 27.8145 142.404 27.7962 142.404 27.7051V27.381C142.404 27.273 142.441 27.2365 142.606 27.2365H144.226C144.333 27.2365 144.404 27.2183 144.48 27.2001C144.551 27.2001 144.627 27.1818 144.679 27.1818C144.807 27.1818 144.898 27.2716 144.879 27.3964C144.86 27.5606 144.807 28.4107 144.807 29.474V30.7757C144.807 31.4996 144.627 32.6555 145.208 33.4873C145.658 34.1368 146.17 34.1733 146.661 34.1733C147.15 34.1733 147.876 33.7033 148.224 33.2685C148.294 33.1787 148.404 32.9444 148.404 32.7803V28.4626C148.37 27.959 148.075 27.8664 147.624 27.8313C147.312 27.8313 147.222 27.7948 147.222 27.7037V27.395C147.222 27.252 147.258 27.2351 147.44 27.2351H149.129C149.258 27.2351 149.347 27.2169 149.44 27.1987C149.53 27.1987 149.601 27.1804 149.656 27.1804C149.766 27.1804 149.838 27.2702 149.818 27.36C149.801 27.5255 149.712 27.994 149.712 29.7643V31.1194H149.714Z" class="sec-color"/>
<path d="M152.945 29.6758C152.945 29.241 152.819 28.9885 152.292 28.7009L151.874 28.4638C151.747 28.4105 151.747 28.3558 151.747 28.3011V28.1566C151.747 28.1033 151.782 28.0683 151.874 28.0318L153.617 27.1635C153.763 27.0905 153.907 27.0176 154.033 27.0176C154.123 27.0176 154.164 27.1074 154.164 27.3795L154.236 28.2464H154.29C154.779 27.6138 155.726 27.0358 156.945 27.0358C157.871 27.0358 158.489 27.4342 159.015 27.9224C159.705 28.6069 159.997 29.349 159.997 30.7392C159.997 33.107 158.344 35.005 156.073 35.005C155.579 35.005 154.817 34.9321 154.253 34.6964V38.5091C154.253 39.0141 154.383 39.1067 154.654 39.1067H155.451C155.598 39.1067 155.616 39.1783 155.616 39.2863V39.5935C155.616 39.7015 155.579 39.7562 155.451 39.7562C155.362 39.7562 154.744 39.7015 153.581 39.7015C152.527 39.7015 151.891 39.7562 151.747 39.7562C151.62 39.7562 151.582 39.7015 151.582 39.5935V39.2694C151.582 39.1797 151.62 39.1081 151.8 39.1081H152.509C152.819 39.1081 152.855 38.9272 152.891 38.6564C152.943 38.258 152.943 37.2831 152.943 35.5128V29.6758H152.945ZM154.252 32.9822C154.252 33.3778 154.288 33.7046 154.634 33.9403C155.142 34.3022 155.706 34.4271 156.451 34.4271C157.487 34.4271 158.558 33.6513 158.558 31.4097C158.558 28.8805 157.412 27.8705 156.195 27.8705C155.434 27.8705 154.689 28.3039 154.25 29.0264V32.9822H154.252Z" class="sec-color"/>
<path d="M85.5854 15.62C89.9851 14.5665 91.7983 13.8286 93.6299 12.6279C95.4628 11.4313 96.3744 9.93452 96.3744 8.14037C96.3744 6.03059 94.8843 4.27571 91.9056 2.87013C88.9282 1.46454 84.8023 0.582194 79.5362 0.22168C79.3895 0.65093 79.1284 2.87854 78.7601 6.90171C78.3904 10.9263 78.3086 15.6943 77.881 21.6253H82.5968L82.6095 16.7969L97.5907 24.3705L101.461 22.9649L85.5854 15.62ZM82.5982 14.5258L84.4806 2.59658C86.4335 3.13525 87.9617 3.89977 89.0693 4.89293C90.1756 5.8833 90.7273 6.98728 90.7273 8.2049C90.7273 9.49265 90.0528 10.6892 88.6982 11.7932C87.3464 12.8972 85.3724 13.5411 82.5982 14.5258Z" class="main-color"/>
</g>
<defs>
<clipPath id="clip0_21_314">
<rect width="160" height="39.7688" fill="white"/>
</clipPath>
</defs>
</svg>
