<svg width="28" height="29" viewBox="0 0 28 29" fill="none" xmlns="http://www.w3.org/2000/svg">
<path d="M9.14846 18.4916C14.3728 17.2265 16.5259 16.3404 18.7007 14.8984C20.8773 13.4615 21.9597 11.664 21.9597 9.50944C21.9597 6.97584 20.1903 4.86843 16.6532 3.18048C13.1178 1.49254 8.21854 0.432936 1.96541 0C1.79116 0.515481 1.48118 3.19059 1.04387 8.02196C0.604873 12.855 0.50769 18.5809 0 25.7033H5.59966L5.61474 19.905L23.404 29L28 27.3121L9.14846 18.4916ZM5.60134 17.1776L7.83651 2.85199C10.1555 3.49887 11.9701 4.41696 13.2854 5.60964C14.599 6.79895 15.2541 8.12472 15.2541 9.58693C15.2541 11.1334 14.4532 12.5703 12.8447 13.8961C11.2395 15.2218 8.89546 15.9951 5.60134 17.1776Z" fill="#A2224C"/>
</svg>
