<svg width="197" height="42" viewBox="0 0 197 42" fill="none" xmlns="http://www.w3.org/2000/svg">
<path d="M29.4926 10.1419C29.4269 8.71815 29.1674 7.37561 28.7157 6.11278C28.4256 5.3009 28.0558 4.52151 27.6093 3.77606C26.4144 1.78353 25.0204 0.581714 23.4392 0.166675C23.1228 0.0825357 22.7991 0.0301331 22.4682 0.00897526C21.3677 -0.0584347 20.4144 0.254013 19.6232 0.941644C18.8337 1.62608 18.398 2.50118 18.3321 3.54037C18.2821 4.30033 18.4903 5.01773 18.9545 5.66256C19.4205 6.32263 20.1246 6.92342 21.0988 7.49099C21.396 7.66345 21.7837 7.86962 22.264 8.11638C22.4896 8.23102 22.7371 8.35551 23.0038 8.48812C24.0991 9.05077 24.9973 9.60776 25.696 10.1561C26.9957 11.1759 27.6108 12.1748 27.5488 13.1596C27.5148 13.6674 27.394 14.1971 27.2162 14.7314C26.7679 16.1003 25.9659 17.5112 25.4076 18.7113L23.439 22.9321L19.5464 31.2801L18.4295 28.9436L13.6608 18.9679L12.8 17.1675C12.4962 16.5618 12.2666 16.0028 12.1188 15.4872C11.9854 14.9826 11.9109 14.5058 11.9109 14.0829C11.9109 13.538 12.1188 13.1593 12.5387 12.9433C12.9585 12.7123 14.0503 12.5485 15.816 12.422V10.9988H0V12.422C2.17483 12.639 3.85344 14.0445 5.05206 16.6221C5.23337 17.0224 5.37926 17.3348 5.48235 17.5616L7.30512 21.4038L15.816 39.3432H17.6334L19.7637 34.8402V34.8388L24.9776 23.8153L24.9793 23.8138V23.8116L27.0496 19.4371C27.9459 17.5471 28.7334 15.7507 29.1639 13.8312C29.4252 12.6634 29.5531 11.45 29.4926 10.1419Z" fill="black"/>
<path d="M52.8768 13.4327C53.0018 13.1706 53.0859 12.9586 53.1285 12.7964C53.1715 12.6343 53.1927 12.4678 53.1927 12.297C53.1927 12.0468 53.066 11.8446 52.8128 11.6908C52.5594 11.5371 52.2162 11.4519 51.7837 11.4347L51.7751 11.0334H55.8135V11.4347C54.8403 11.6114 54.055 12.3312 53.4572 13.5945V13.6034L48.5992 23.9939H48.1382L43.3653 13.8509V13.8423C42.6086 12.2367 41.8341 11.4345 41.0431 11.4345H40.8296V11.0332H46.9341V11.4345C46.3877 11.4856 46.0005 11.554 45.7729 11.6394C45.5451 11.725 45.4314 11.8443 45.4314 11.9979C45.4314 12.112 45.4654 12.2727 45.5338 12.4801C45.6022 12.6882 45.7075 12.9455 45.8499 13.2531L49.3675 20.8598L52.8768 13.4327Z" fill="black"/>
<path d="M60.2446 23.7461V23.3446C60.9337 23.3446 61.376 23.2676 61.5726 23.1141C61.7687 22.9603 61.8666 22.6304 61.8666 22.1239V12.6638C61.8666 12.1573 61.7687 11.8256 61.5726 11.6689C61.376 11.5132 60.9334 11.4345 60.2446 11.4345V11.0332H70.6437L72.0438 14.4229H71.66C71.2159 13.9104 70.8188 13.4792 70.4685 13.1291C70.1187 12.7795 69.8155 12.513 69.5592 12.331C69.3033 12.143 69.0659 11.9912 68.8467 11.8748C68.6273 11.7577 68.4122 11.665 68.2016 11.5968C68.0312 11.5405 67.8092 11.4989 67.5357 11.4733C67.2628 11.4477 66.9351 11.435 66.554 11.435H65.0346C64.7559 11.435 64.5746 11.4608 64.4919 11.5117C64.4097 11.5631 64.3684 11.6886 64.3684 11.8876V12.2547V16.9589H65.5552C66.6195 16.9589 67.4363 16.7586 68.0053 16.3571C68.5749 15.9559 68.9419 15.3255 69.1073 14.4657H69.4743V20.3055H69.1073C69.0389 19.3266 68.7129 18.6011 68.1296 18.1287C67.5458 17.6564 66.6881 17.4197 65.5554 17.4197H64.3686V22.0815C64.3686 22.7131 64.4269 23.0814 64.5438 23.1869C64.6602 23.2925 64.9975 23.3449 65.5554 23.3449H66.8704C68.0088 23.3449 68.9636 23.092 69.7346 22.5849C70.5059 22.0783 71.2363 21.219 71.9249 20.0068L72.3092 20.041L71.2934 23.7464H60.2446V23.7461Z" fill="black"/>
<path d="M77.9688 23.7461V23.3446H78.1656C78.8311 23.3446 79.2628 23.2664 79.4589 23.1097C79.6552 22.9534 79.7534 22.6245 79.7534 22.1239V12.6638C79.7534 12.1573 79.6552 11.8256 79.4589 11.6689C79.2628 11.5132 78.82 11.4345 78.1314 11.4345V11.0332H83.937C85.6387 11.0332 86.9818 11.3452 87.9666 11.9676C88.9514 12.5913 89.4439 13.4356 89.4439 14.4996C89.4439 15.2682 89.192 15.887 88.6882 16.3566C88.1846 16.826 87.4202 17.1493 86.396 17.3255C86.9594 17.6787 87.4861 18.2933 87.9752 19.1696C88.0096 19.2265 88.0323 19.2663 88.0433 19.2892L89.0255 21.0566L89.1022 21.1934C89.8705 22.6162 90.6531 23.3274 91.45 23.3274C91.4726 23.3274 91.5093 23.3247 91.561 23.3193C91.6124 23.3139 91.652 23.3104 91.6803 23.3104V23.7461H87.5909L85.7553 20.0745C85.1747 18.9367 84.7051 18.2264 84.3466 17.9447C83.9879 17.6628 83.5242 17.522 82.9554 17.522H82.2547V22.1239C82.2547 22.6245 82.3543 22.9534 82.5534 23.1097C82.7529 23.2664 83.1824 23.3446 83.8428 23.3446H84.0396V23.7461H77.9688ZM82.2549 12.7155V16.9756H83.3903C84.5289 16.9756 85.391 16.735 85.9773 16.2538C86.5635 15.7728 86.857 15.0714 86.857 14.1493C86.857 13.3123 86.5679 12.6537 85.99 12.1733C85.4121 11.692 84.6167 11.4517 83.6039 11.4517C83.0176 11.4517 82.6464 11.5287 82.4896 11.6822C82.3334 11.8362 82.2549 12.1804 82.2549 12.7155Z" fill="black"/>
<path d="M103.411 23.9933C102.461 23.9933 101.577 23.8179 100.761 23.4676C99.9436 23.118 99.2193 22.6041 98.5877 21.9273C98.0123 21.3068 97.5744 20.6135 97.2725 19.8479C96.9709 19.0825 96.8201 18.2787 96.8201 17.4359C96.8201 16.5883 96.9724 15.7799 97.2769 15.0108C97.5815 14.2428 98.0239 13.5453 98.6045 12.9197C99.2134 12.2537 99.9293 11.7469 100.752 11.3997C101.574 11.0528 102.461 10.8789 103.411 10.8789C104.362 10.8789 105.251 11.0541 106.08 11.4044C106.908 11.754 107.627 12.2598 108.235 12.9199C108.816 13.5458 109.258 14.2433 109.563 15.0111C109.868 15.7802 110.02 16.5886 110.02 17.4361C110.02 18.279 109.869 19.0825 109.567 19.8481C109.266 20.6137 108.828 21.307 108.253 21.9275C107.627 22.5989 106.901 23.1111 106.075 23.4637C105.25 23.8165 104.362 23.9933 103.411 23.9933ZM103.411 23.5321C104.686 23.5321 105.64 23.025 106.272 22.0121C106.903 20.9993 107.219 19.4739 107.219 17.4359C107.219 15.3983 106.902 13.8686 106.267 12.8471C105.633 11.8254 104.68 11.3146 103.411 11.3146C102.142 11.3146 101.192 11.8239 100.56 12.8427C99.9281 13.8617 99.6119 15.3932 99.6119 17.4361C99.6119 19.4739 99.9281 20.9993 100.56 22.0124C101.192 23.0255 102.142 23.5321 103.411 23.5321Z" fill="black"/>
<path d="M128.623 23.9161H128.367C128.162 23.6255 127.983 23.414 127.829 23.2801C127.675 23.146 127.533 23.0796 127.402 23.0796C127.271 23.0796 127.015 23.149 126.633 23.2887C126.253 23.4282 125.965 23.5293 125.771 23.5916C125.328 23.723 124.876 23.8221 124.418 23.8907C123.96 23.9584 123.497 23.9933 123.031 23.9933C121.972 23.9933 120.988 23.8263 120.077 23.4937C119.166 23.1606 118.372 22.6784 117.695 22.0461C117.023 21.4318 116.521 20.7304 116.188 19.9419C115.855 19.1536 115.688 18.2812 115.688 17.3249C115.688 16.3797 115.858 15.529 116.196 14.7724C116.535 14.0152 117.057 13.318 117.763 12.6803C118.423 12.0829 119.186 11.6335 120.051 11.3316C120.916 11.0302 121.875 10.8789 122.928 10.8789C123.418 10.8789 123.896 10.9124 124.363 10.9773C124.829 11.043 125.288 11.1436 125.737 11.2804C125.931 11.3368 126.218 11.4354 126.6 11.5747C126.981 11.7141 127.237 11.784 127.368 11.784C127.499 11.784 127.641 11.7169 127.795 11.5835C127.948 11.4502 128.125 11.2374 128.324 10.9473H128.589V15.3531H128.187C127.544 14.0268 126.773 13.022 125.874 12.3393C124.974 11.6561 123.967 11.3146 122.851 11.3146C121.423 11.3146 120.328 11.8342 119.568 12.8727C118.809 13.9114 118.429 15.4153 118.429 17.3852C118.429 19.2687 118.83 20.7648 119.632 21.8714C120.435 22.9785 121.502 23.5321 122.834 23.5321C123.842 23.5321 124.81 23.1763 125.741 22.4648C126.672 21.7533 127.516 20.7232 128.273 19.3743H128.623V23.9161H128.623Z" fill="black"/>
<path d="M147.492 23.9161H147.235C147.031 23.6255 146.851 23.414 146.698 23.2801C146.544 23.146 146.402 23.0796 146.271 23.0796C146.14 23.0796 145.884 23.149 145.502 23.2887C145.121 23.4282 144.833 23.5293 144.64 23.5916C144.196 23.723 143.745 23.8221 143.287 23.8907C142.829 23.9584 142.366 23.9933 141.9 23.9933C140.841 23.9933 139.856 23.8263 138.945 23.4937C138.034 23.1606 137.24 22.6784 136.563 22.0461C135.891 21.4318 135.389 20.7304 135.056 19.9419C134.723 19.1536 134.557 18.2812 134.557 17.3249C134.557 16.3797 134.726 15.529 135.065 14.7724C135.403 14.0152 135.925 13.318 136.631 12.6803C137.292 12.0829 138.054 11.6335 138.92 11.3316C139.785 11.0302 140.744 10.8789 141.796 10.8789C142.286 10.8789 142.765 10.9124 143.231 10.9773C143.698 11.043 144.156 11.1436 144.606 11.2804C144.799 11.3368 145.087 11.4354 145.468 11.5747C145.849 11.7141 146.105 11.784 146.237 11.784C146.368 11.784 146.509 11.7169 146.663 11.5835C146.817 11.4502 146.993 11.2374 147.193 10.9473H147.457V15.3531H147.056C146.413 14.0268 145.642 13.022 144.742 12.3393C143.843 11.6561 142.835 11.3146 141.72 11.3146C140.291 11.3146 139.197 11.8342 138.437 12.8727C137.677 13.9114 137.297 15.4153 137.297 17.3852C137.297 19.2687 137.698 20.7648 138.501 21.8714C139.304 22.9785 140.371 23.5321 141.703 23.5321C142.71 23.5321 143.679 23.1763 144.61 22.4648C145.54 21.7533 146.384 20.7232 147.142 19.3743H147.491V23.9161H147.492Z" fill="black"/>
<path d="M159.666 11.0332V11.4345H159.47C158.81 11.4345 158.38 11.5132 158.181 11.6689C157.982 11.8256 157.882 12.1573 157.882 12.6638V22.1239C157.882 22.6245 157.982 22.9534 158.181 23.1097C158.38 23.2664 158.81 23.3446 159.47 23.3446H159.666V23.7461H153.579V23.3446H153.775C154.441 23.3446 154.872 23.2664 155.069 23.1097C155.265 22.9534 155.363 22.6245 155.363 22.1239V12.6638C155.363 12.1519 155.266 11.8185 155.073 11.6647C154.879 11.511 154.441 11.4342 153.758 11.4342V11.0332H159.666Z" fill="black"/>
<path d="M172.08 23.9933C171.129 23.9933 170.246 23.8179 169.429 23.4676C168.612 23.118 167.888 22.6041 167.256 21.9273C166.681 21.3068 166.243 20.6135 165.941 19.8479C165.64 19.0825 165.489 18.2787 165.489 17.4359C165.489 16.5883 165.641 15.7799 165.946 15.0108C166.25 14.2428 166.693 13.5453 167.273 12.9197C167.882 12.2537 168.598 11.7469 169.421 11.3997C170.243 11.0528 171.129 10.8789 172.08 10.8789C173.03 10.8789 173.92 11.0541 174.748 11.4044C175.576 11.754 176.295 12.2598 176.904 12.9199C177.484 13.5458 177.927 14.2433 178.231 15.0111C178.536 15.7802 178.688 16.5886 178.688 17.4361C178.688 18.279 178.537 19.0825 178.236 19.8481C177.934 20.6137 177.496 21.307 176.921 21.9275C176.295 22.5989 175.569 23.1111 174.744 23.4637C173.918 23.8165 173.03 23.9933 172.08 23.9933ZM172.08 23.5321C173.355 23.5321 174.308 23.025 174.94 22.0121C175.572 20.9993 175.888 19.4739 175.888 17.4359C175.888 15.3983 175.57 13.8686 174.936 12.8471C174.301 11.8254 173.349 11.3146 172.08 11.3146C170.811 11.3146 169.86 11.8239 169.229 12.8427C168.597 13.8617 168.281 15.3932 168.281 17.4361C168.281 19.4739 168.597 20.9993 169.229 22.0124C169.86 23.0255 170.811 23.5321 172.08 23.5321Z" fill="black"/>
<path d="M190.355 11.3831L190.44 12.9881H190.184C190.138 12.5325 190.024 12.2011 189.842 11.9934C189.66 11.7855 189.395 11.6817 189.048 11.6817H188.955V15.2847C188.955 15.4154 188.985 15.5207 189.044 15.6006C189.104 15.6801 189.185 15.7258 189.288 15.7372L189.552 15.7713V16.0186H187.332V15.7711L187.606 15.7369C187.714 15.7256 187.795 15.6813 187.849 15.6048C187.903 15.5275 187.93 15.4213 187.93 15.2845V11.6817H187.802C187.466 11.6817 187.207 11.788 187.025 12.002C186.843 12.2151 186.729 12.544 186.684 12.9881H186.436L186.53 11.3831H190.355ZM192.72 11.3831L193.872 14.6357L195.042 11.3831H196.656V11.6136L196.417 11.6308C196.308 11.6475 196.225 11.6948 196.165 11.7715C196.105 11.848 196.075 11.9521 196.075 12.0832V15.2847C196.075 15.4154 196.105 15.5197 196.165 15.5962C196.225 15.6732 196.311 15.7199 196.426 15.7372L196.656 15.7713V16.0186H194.556V15.7711L194.812 15.7369C194.926 15.7256 195.009 15.6813 195.064 15.6048C195.118 15.5275 195.145 15.4213 195.145 15.2845V12.0832L193.753 16.0363H193.522L192.071 12.0321V15.285C192.071 15.4218 192.1 15.5293 192.157 15.6092C192.213 15.6894 192.296 15.732 192.404 15.7374L192.703 15.7716V16.0188H191.021V15.7711L191.303 15.7369C191.416 15.7256 191.503 15.6828 191.563 15.6087C191.623 15.5349 191.653 15.4323 191.653 15.3012V12.1169C191.653 11.9858 191.622 11.881 191.559 11.801C191.496 11.7213 191.411 11.6761 191.303 11.6643L191.021 11.647V11.3828H192.72V11.3831Z" fill="black"/>
<path d="M42.7427 39.3306V30.4824H43.6759V33.5353C43.791 33.2627 43.9775 33.042 44.2346 32.873C44.4917 32.7001 44.7798 32.6137 45.0986 32.6137C45.7937 32.6137 46.314 32.8942 46.6597 33.4549C47.0053 34.0116 47.178 34.7452 47.178 35.6553C47.178 36.9186 47.0203 37.8769 46.7057 38.5295C46.3944 39.179 45.8645 39.5033 45.1159 39.5033C44.413 39.5033 43.904 39.1653 43.5893 38.4894V39.3306H42.7427ZM43.6759 36.2027V36.6061C43.6759 37.4397 43.791 38.0001 44.0216 38.2882C44.2558 38.5724 44.5667 38.7143 44.9547 38.7143C45.4502 38.7143 45.7843 38.4781 45.957 38.0058C46.1297 37.5295 46.2163 36.8384 46.2163 35.9318C46.2163 34.2458 45.79 33.4032 44.9375 33.4032C44.4843 33.4032 44.1598 33.5877 43.964 33.9562C43.7718 34.3248 43.6759 34.9394 43.6759 35.7994V36.2027Z" fill="black"/>
<path d="M51.017 39.3302V32.786H51.9214V33.8114C52.2592 33.0126 52.8317 32.6133 53.6381 32.6133C53.7225 32.6133 53.8052 32.6172 53.8859 32.6248V33.5523C53.8052 33.5292 53.6748 33.5179 53.4942 33.5179C53.0066 33.5179 52.6263 33.679 52.3537 34.0018C52.085 34.3244 51.9504 34.7524 51.9504 35.2863V39.3304H51.017V39.3302Z" fill="black"/>
<path d="M56.9062 34.549V34.3185C56.9062 33.1818 57.5552 32.6133 58.8532 32.6133C59.4409 32.6133 59.8862 32.7552 60.1896 33.0394C60.4969 33.3235 60.6506 33.7002 60.6506 34.1686V38.2297C60.6506 38.5102 60.7773 38.6502 61.0307 38.6502C61.092 38.6502 61.1554 38.6462 61.2206 38.6388V39.3125C61.1092 39.3587 60.9672 39.3816 60.7943 39.3816C60.4563 39.3816 60.2184 39.3088 60.0801 39.1629C59.9455 39.0128 59.8727 38.7557 59.8611 38.3906C59.7229 38.7213 59.5118 38.9899 59.2274 39.1971C58.9472 39.4005 58.6514 39.5024 58.3402 39.5024C57.2112 39.5024 56.6466 38.8743 56.6466 37.6188C56.6466 36.8084 56.9942 36.2596 57.6892 35.9712L59.3829 35.2858C59.5327 35.2243 59.6382 35.1515 59.6997 35.0669C59.7612 34.9822 59.792 34.8115 59.792 34.5544C59.792 34.0552 59.7017 33.7381 59.5211 33.6038C59.3405 33.4694 59.0795 33.4023 58.7375 33.4023C58.3803 33.4023 58.1269 33.4753 57.9771 33.621C57.8275 33.7674 57.7525 33.9994 57.7525 34.3182V34.5487H56.9062V34.549ZM59.7172 35.7818C59.3907 35.9816 58.9011 36.2104 58.2482 36.4675C57.8221 36.6441 57.6088 37.0375 57.6088 37.6481C57.6088 38.3589 57.92 38.7139 58.542 38.7139C58.8797 38.7139 59.1602 38.5872 59.3829 38.3338C59.6055 38.0764 59.717 37.7672 59.717 37.406V35.7818H59.7172Z" fill="black"/>
<path d="M64.6793 39.3302V32.786H65.5837V33.5349C66.0022 32.9206 66.5572 32.6133 67.2485 32.6133C67.7593 32.6133 68.1507 32.7535 68.4235 33.034C68.7001 33.3144 68.8383 33.7423 68.8383 34.3185V39.3302H67.9052V34.5834C67.9052 33.7962 67.5863 33.4025 66.9489 33.4025C66.5609 33.4025 66.2403 33.5349 65.9869 33.7998C65.7372 34.0648 65.6125 34.4028 65.6125 34.8137V39.3299H64.6793V39.3302Z" fill="black"/>
<path d="M76.0757 33.5353V30.4824H77.0088V39.3306H76.1045V38.3972C75.9315 38.7583 75.73 39.0329 75.4995 39.2211C75.269 39.4093 74.9329 39.5033 74.4915 39.5033C73.8846 39.5033 73.4122 39.2519 73.0744 38.7488C72.7403 38.2419 72.5733 37.2374 72.5733 35.736C72.5733 34.8336 72.7423 34.0886 73.0804 33.5009C73.4181 32.9097 73.9021 32.614 74.5319 32.614C75.1733 32.6137 75.6877 32.921 76.0757 33.5353ZM73.5352 36.0814C73.5352 37.0992 73.6332 37.792 73.829 38.1608C74.0288 38.5293 74.3513 38.7138 74.7968 38.7138C75.1964 38.7138 75.5091 38.5335 75.7359 38.1726C75.9625 37.8077 76.0757 37.3275 76.0757 36.7324V35.8915C76.0757 35.0198 75.9738 34.388 75.7704 33.9961C75.5666 33.6008 75.2424 33.4029 74.7968 33.4029C73.9557 33.4029 73.5352 34.2958 73.5352 36.0814Z" fill="black"/>
<path d="M81.0663 30.4941H81.9995V31.6807H81.0663V30.4941ZM81.0663 32.7868H81.9995V39.331H81.0663V32.7868Z" fill="black"/>
<path d="M85.9994 39.3302V32.786H86.9038V33.5349C87.3222 32.9206 87.8773 32.6133 88.5686 32.6133C89.0793 32.6133 89.4708 32.7535 89.7436 33.034C90.0201 33.3144 90.1584 33.7423 90.1584 34.3185V39.3302H89.2252V34.5834C89.2252 33.7962 88.9064 33.4025 88.2689 33.4025C87.881 33.4025 87.5604 33.5349 87.307 33.7998C87.0573 34.0648 86.9325 34.4028 86.9325 34.8137V39.3299H85.9994V39.3302Z" fill="black"/>
<path d="M94.2732 39.987H95.1604C95.2448 40.5054 95.6018 40.7645 96.2318 40.7645C96.6503 40.7645 96.9711 40.6166 97.1938 40.3211C97.4164 40.0254 97.5278 39.57 97.5278 38.956V38.5121C97.1669 39.1727 96.6924 39.5029 96.1049 39.5029C94.6993 39.5029 93.9965 38.3449 93.9965 36.0295C93.9965 34.9889 94.1694 34.159 94.5148 33.541C94.8642 32.9225 95.3769 32.6133 96.053 32.6133C96.7519 32.6133 97.2531 32.9299 97.5564 33.5639V32.786H98.4608V38.6101C98.4608 40.5723 97.6966 41.5537 96.1681 41.5537C95.5919 41.5537 95.1446 41.4152 94.8258 41.1387C94.5114 40.8587 94.3271 40.4749 94.2732 39.987ZM94.9589 36.0354C94.9589 37.8213 95.3621 38.7141 96.1686 38.7141C97.0939 38.7141 97.5569 37.8772 97.5569 36.2025C97.5569 35.2041 97.4511 34.4877 97.24 34.054C97.0326 33.62 96.7022 33.403 96.2493 33.403C95.3889 33.403 94.9589 34.2803 94.9589 36.0354Z" fill="black"/>
<path d="M106.904 33.5756V32.7863H107.809V31.0352H108.742V32.7863H109.848V33.5756H108.742V38.0342C108.742 38.2342 108.767 38.3681 108.817 38.4375C108.871 38.5063 109.005 38.5413 109.22 38.5413H109.819V39.3305H108.782C108.402 39.3305 108.145 39.2535 108.01 39.1C107.876 38.9423 107.809 38.6677 107.809 38.2758V33.5756H106.904Z" fill="black"/>
<path d="M113.837 36.1216V36.6111C113.837 37.4289 113.946 37.9842 114.165 38.2757C114.388 38.568 114.679 38.7136 115.041 38.7136C115.39 38.7136 115.661 38.6007 115.853 38.3739C116.045 38.1431 116.146 37.8378 116.158 37.4579C116.158 37.3426 116.162 37.237 116.17 37.1411H117.016V37.3657C117.016 37.9687 116.844 38.4757 116.498 38.8866C116.156 39.2974 115.661 39.5029 115.012 39.5029C113.587 39.5029 112.875 38.3547 112.875 36.0581C112.875 34.9943 113.057 34.1553 113.422 33.541C113.787 32.9225 114.313 32.6133 115 32.6133C115.741 32.6133 116.27 32.8534 116.585 33.3336C116.903 33.8136 117.063 34.7431 117.063 36.1216H113.837ZM116.1 35.3554C116.1 34.5682 116.001 34.0459 115.801 33.7885C115.605 33.5312 115.352 33.4028 115.041 33.4028C114.606 33.4028 114.301 33.5543 114.125 33.8579C113.948 34.1613 113.852 34.6607 113.837 35.3557H116.1V35.3554Z" fill="black"/>
<path d="M123.775 37.0144H124.662C124.643 37.8056 124.459 38.4182 124.109 38.8519C123.76 39.2861 123.266 39.5029 122.629 39.5029C121.876 39.5029 121.321 39.2514 120.964 38.7483C120.607 38.2452 120.428 37.3851 120.428 36.1678C120.428 34.9466 120.605 34.0498 120.958 33.4773C121.316 32.9014 121.886 32.6133 122.669 32.6133C123.276 32.6133 123.752 32.8148 124.098 33.2182C124.443 33.6212 124.616 34.1571 124.616 34.8253H123.729C123.729 33.8768 123.376 33.4025 122.669 33.4025C122.216 33.4025 121.89 33.6119 121.69 34.0304C121.49 34.4454 121.391 35.1692 121.391 36.202C121.391 37.1467 121.49 37.8016 121.69 38.1662C121.894 38.5311 122.206 38.7136 122.629 38.7136C122.978 38.7136 123.245 38.6024 123.43 38.3798C123.618 38.1571 123.733 37.7018 123.775 37.0144Z" fill="black"/>
<path d="M128.299 30.4824H129.233V33.5353C129.651 32.921 130.197 32.6137 130.868 32.6137C131.406 32.6137 131.806 32.7557 132.067 33.0398C132.328 33.324 132.459 33.7503 132.459 34.3186V39.3303H131.525V34.5836C131.525 33.7963 131.207 33.4027 130.569 33.4027C130.131 33.4027 129.799 33.5412 129.572 33.8177C129.346 34.094 129.233 34.4264 129.233 34.8141V39.3303H128.299V30.4824Z" fill="black"/>
<path d="M136.499 39.3302V32.786H137.403V33.5349C137.822 32.9206 138.377 32.6133 139.068 32.6133C139.579 32.6133 139.97 32.7535 140.243 33.034C140.52 33.3144 140.658 33.7423 140.658 34.3185V39.3302H139.725V34.5834C139.725 33.7962 139.406 33.4025 138.769 33.4025C138.381 33.4025 138.06 33.5349 137.807 33.7998C137.557 34.0648 137.432 34.4028 137.432 34.8137V39.3299H136.499V39.3302Z" fill="black"/>
<path d="M144.439 35.8162C144.439 34.7756 144.635 33.9826 145.026 33.437C145.422 32.8881 146.007 32.6133 146.783 32.6133C147.532 32.6133 148.102 32.8918 148.494 33.4488C148.889 34.0018 149.087 34.7815 149.087 35.7875C149.087 37.0279 148.909 37.9574 148.552 38.5754C148.198 39.1941 147.614 39.5031 146.8 39.5031C145.963 39.5031 145.36 39.219 144.992 38.6504C144.623 38.0784 144.439 37.1337 144.439 35.8162ZM145.401 36.1216C145.401 37.0203 145.508 37.6767 145.723 38.0914C145.942 38.5062 146.29 38.7136 146.766 38.7136C147.265 38.7136 147.616 38.4966 147.82 38.0627C148.024 37.6287 148.125 36.9816 148.125 36.1213C148.125 35.1535 148.02 34.4584 147.809 34.0358C147.598 33.6134 147.248 33.4023 146.76 33.4023C146.296 33.4023 145.952 33.6097 145.729 34.0245C145.51 34.4397 145.401 35.1385 145.401 36.1216Z" fill="black"/>
<path d="M152.886 39.3306V30.4824H153.819V39.3306H152.886Z" fill="black"/>
<path d="M157.559 35.8162C157.559 34.7756 157.755 33.9826 158.147 33.437C158.542 32.8881 159.128 32.6133 159.904 32.6133C160.653 32.6133 161.223 32.8918 161.615 33.4488C162.01 34.0018 162.208 34.7815 162.208 35.7875C162.208 37.0279 162.03 37.9574 161.673 38.5754C161.319 39.1941 160.736 39.5031 159.921 39.5031C159.084 39.5031 158.481 39.219 158.113 38.6504C157.744 38.0784 157.559 37.1337 157.559 35.8162ZM158.522 36.1216C158.522 37.0203 158.629 37.6767 158.844 38.0914C159.063 38.5062 159.41 38.7136 159.887 38.7136C160.386 38.7136 160.737 38.4966 160.941 38.0627C161.144 37.6287 161.246 36.9816 161.246 36.1213C161.246 35.1535 161.14 34.4584 160.929 34.0358C160.718 33.6134 160.368 33.4023 159.881 33.4023C159.416 33.4023 159.072 33.6097 158.85 34.0245C158.631 34.4397 158.522 35.1385 158.522 36.1216Z" fill="black"/>
<path d="M166.093 39.987H166.98C167.064 40.5054 167.422 40.7645 168.051 40.7645C168.47 40.7645 168.791 40.6166 169.013 40.3211C169.236 40.0254 169.347 39.57 169.347 38.956V38.5121C168.986 39.1727 168.512 39.5029 167.925 39.5029C166.519 39.5029 165.816 38.3449 165.816 36.0295C165.816 34.9889 165.989 34.159 166.335 33.541C166.684 32.9225 167.197 32.6133 167.872 32.6133C168.571 32.6133 169.073 32.9299 169.376 33.5639V32.786H170.28V38.6101C170.28 40.5723 169.516 41.5537 167.988 41.5537C167.412 41.5537 166.964 41.4152 166.645 41.1387C166.331 40.8587 166.147 40.4749 166.093 39.987ZM166.778 36.0354C166.778 37.8213 167.182 38.7141 167.988 38.7141C168.914 38.7141 169.376 37.8772 169.376 36.2025C169.376 35.2041 169.271 34.4877 169.06 34.054C168.852 33.62 168.522 33.403 168.069 33.403C167.208 33.403 166.778 34.2803 166.778 36.0354Z" fill="black"/>
<path d="M173.728 41.4562V40.6386C173.943 40.7307 174.183 40.7769 174.448 40.7769C174.908 40.7769 175.221 40.5599 175.387 40.1259L175.571 39.5788L173.451 32.7871H174.413L175.934 38.513L177.466 32.7871H178.428L176.308 39.7805C176.089 40.4718 175.839 40.9422 175.559 41.1917C175.283 41.4414 174.905 41.5659 174.425 41.5659C174.175 41.5657 173.943 41.5292 173.728 41.4562Z" fill="black"/>
</svg>
